<svg id="Layer_1" data-name="Layer 1" xmlns="http://www.w3.org/2000/svg" viewBox="0 0 1024 1024"><defs><style>.cls-1{fill:#4db0d5;}.cls-2{fill:#245ba1;}.cls-3{fill:#1c3a4d;}</style></defs><path class="cls-1" d="M816.3,424.77V597.52l46.57,79.17c4.76-.47,9.58-.72,14.46-.72a145.07,145.07,0,0,1,61,13.4V332.92a145.68,145.68,0,1,0-180.69-49.23l-63,107.09,70.81,120.36Z"/><path class="cls-1" d="M526.46,676.69c-4.76-.47-9.58-.72-14.46-.72s-9.7.25-14.46.72L400.15,511.15,329.33,631.51l63,107.09a145.66,145.66,0,1,0,239.32,0l63-107.09L623.85,511.15Z"/><path class="cls-1" d="M161.13,676.69l46.57-79.16V424.77l50.82,86.38,70.81-120.37-63-107.09a145.65,145.65,0,1,0-180.7,49.23V689.37a145.15,145.15,0,0,1,61-13.4C151.55,676,156.37,676.22,161.13,676.69Z"/><path class="cls-2" d="M497.54,345.61c4.76.46,9.58.71,14.46.71s9.7-.25,14.46-.71l97.39,165.54,70.82-120.37-63-107.09a145.66,145.66,0,1,0-239.32,0l-63,107.09,70.82,120.37Z"/><path class="cls-2" d="M816.3,689.37V597.52l-50.82-86.38L694.67,631.51l63,107.09A146.35,146.35,0,0,1,816.3,689.37Z"/><path class="cls-2" d="M207.7,597.53v91.84a146.35,146.35,0,0,1,58.63,49.23l63-107.09L258.52,511.15Z"/><polygon class="cls-3" points="329.33 390.78 258.52 511.15 329.33 631.51 400.15 511.14 329.33 390.78"/><polygon class="cls-3" points="694.67 390.78 623.85 511.14 694.67 631.51 765.48 511.14 694.67 390.78"/><path class="cls-3" d="M877.31,676c-4.88,0-9.69.25-14.44.72L816.3,597.52v91.84a145.67,145.67,0,1,0,61-13.4Z"/><path class="cls-3" d="M146.69,676c4.88,0,9.69.25,14.44.72l46.57-79.16v91.84a145.67,145.67,0,1,1-61-13.4Z"/></svg>