<?xml version="1.0" encoding="UTF-8" standalone="no"?>
<!DOCTYPE svg PUBLIC "-//W3C//DTD SVG 1.1//EN"
 "http://www.w3.org/Graphics/SVG/1.1/DTD/svg11.dtd">
<!-- Generated by graphviz version 2.40.1 (20161225.0304)
 -->
<!-- Title: dependencies Pages: 1 -->
<svg width="8009pt" height="284pt"
 viewBox="0.00 0.00 8009.00 284.00" xmlns="http://www.w3.org/2000/svg" xmlns:xlink="http://www.w3.org/1999/xlink">
<g id="graph0" class="graph" transform="scale(1 1) rotate(0) translate(4 280)">
<title>dependencies</title>
<polygon fill="#ffffff" stroke="transparent" points="-4,4 -4,-280 8005,-280 8005,4 -4,4"/>
<text text-anchor="start" x="3979.5091" y="-42.4" font-family="sans-serif" font-weight="bold" font-size="14.00" fill="#000000">Legend</text>
<polygon fill="#ffffb3" stroke="transparent" points="3766.5,-10 3766.5,-30 3786.5,-30 3786.5,-10 3766.5,-10"/>
<text text-anchor="start" x="3790.129" y="-15.4" font-family="sans-serif" font-size="14.00" fill="#000000"> &#160;Declarations</text>
<polygon fill="#8dd3c7" stroke="transparent" points="3879.5,-10 3879.5,-30 3899.5,-30 3899.5,-10 3879.5,-10"/>
<text text-anchor="start" x="3903.2251" y="-15.4" font-family="sans-serif" font-size="14.00" fill="#000000"> &#160;Module</text>
<polygon fill="#80b1d3" stroke="transparent" points="3965.5,-10 3965.5,-30 3985.5,-30 3985.5,-10 3965.5,-10"/>
<text text-anchor="start" x="3989.2812" y="-15.4" font-family="sans-serif" font-size="14.00" fill="#000000"> &#160;Bootstrap</text>
<polygon fill="#fdb462" stroke="transparent" points="4062.5,-10 4062.5,-30 4082.5,-30 4082.5,-10 4062.5,-10"/>
<text text-anchor="start" x="4086.1732" y="-15.4" font-family="sans-serif" font-size="14.00" fill="#000000"> &#160;Providers</text>
<polygon fill="#fb8072" stroke="transparent" points="4158.5,-10 4158.5,-30 4178.5,-30 4178.5,-10 4158.5,-10"/>
<text text-anchor="start" x="4182.2258" y="-15.4" font-family="sans-serif" font-size="14.00" fill="#000000"> &#160;Exports</text>
<g id="clust1" class="cluster">
<title>cluster_DataMapperModule</title>
<polygon fill="none" stroke="#000000" stroke-dasharray="1,5" points="8,-70 8,-268 7993,-268 7993,-70 8,-70"/>
</g>
<g id="clust2" class="cluster">
<title>cluster_DataMapperModule_declarations</title>
<polygon fill="none" stroke="#000000" points="1540,-78 1540,-130 7985,-130 7985,-78 1540,-78"/>
</g>
<g id="clust36" class="cluster">
<title>cluster_DataMapperModule_imports</title>
<polygon fill="none" stroke="#000000" points="1388,-78 1388,-130 1532,-130 1532,-78 1388,-78"/>
</g>
<g id="clust37" class="cluster">
<title>cluster_DataMapperModule_exports</title>
<polygon fill="none" stroke="#000000" points="3495,-208 3495,-260 4367,-260 4367,-208 3495,-208"/>
</g>
<g id="clust39" class="cluster">
<title>cluster_DataMapperModule_providers</title>
<polygon fill="none" stroke="#000000" points="16,-78 16,-130 1380,-130 1380,-78 16,-78"/>
</g>
<!-- ClassNameComponent -->
<g id="node1" class="node">
<title>ClassNameComponent</title>
<polygon fill="#ffffb3" stroke="#000000" points="7976.5898,-122 7831.4102,-122 7831.4102,-86 7976.5898,-86 7976.5898,-122"/>
<text text-anchor="middle" x="7904" y="-99.8" font-family="Times,serif" font-size="14.00" fill="#000000">ClassNameComponent</text>
</g>
<!-- DataMapperModule -->
<g id="node34" class="node">
<title>DataMapperModule</title>
<polygon fill="#8dd3c7" stroke="#000000" points="4099.5115,-187 4096.5115,-191 4075.5115,-191 4072.5115,-187 3970.4885,-187 3970.4885,-151 4099.5115,-151 4099.5115,-187"/>
<text text-anchor="middle" x="4035" y="-164.8" font-family="Times,serif" font-size="14.00" fill="#000000">DataMapperModule</text>
</g>
<!-- ClassNameComponent&#45;&gt;DataMapperModule -->
<g id="edge1" class="edge">
<title>ClassNameComponent&#45;&gt;DataMapperModule</title>
<path fill="none" stroke="#000000" d="M7904,-122.1532C7904,-145.7566 7904,-184 7904,-184 7904,-184 4109.7257,-184 4109.7257,-184"/>
<polygon fill="#000000" stroke="#000000" points="4109.7257,-180.5001 4099.7257,-184 4109.7257,-187.5001 4109.7257,-180.5001"/>
</g>
<!-- CollapsableHeaderComponent -->
<g id="node2" class="node">
<title>CollapsableHeaderComponent</title>
<polygon fill="#ffffb3" stroke="#000000" points="7813.8403,-122 7626.1597,-122 7626.1597,-86 7813.8403,-86 7813.8403,-122"/>
<text text-anchor="middle" x="7720" y="-99.8" font-family="Times,serif" font-size="14.00" fill="#000000">CollapsableHeaderComponent</text>
</g>
<!-- CollapsableHeaderComponent&#45;&gt;DataMapperModule -->
<g id="edge2" class="edge">
<title>CollapsableHeaderComponent&#45;&gt;DataMapperModule</title>
<path fill="none" stroke="#000000" d="M7720,-122.0908C7720,-145.1328 7720,-182 7720,-182 7720,-182 4109.7398,-182 4109.7398,-182"/>
<polygon fill="#000000" stroke="#000000" points="4109.7399,-178.5001 4099.7398,-182 4109.7398,-185.5001 4109.7399,-178.5001"/>
</g>
<!-- ConstantFieldEditComponent -->
<g id="node3" class="node">
<title>ConstantFieldEditComponent</title>
<polygon fill="#ffffb3" stroke="#000000" points="7607.7217,-122 7424.2783,-122 7424.2783,-86 7607.7217,-86 7607.7217,-122"/>
<text text-anchor="middle" x="7516" y="-99.8" font-family="Times,serif" font-size="14.00" fill="#000000">ConstantFieldEditComponent</text>
</g>
<!-- ConstantFieldEditComponent&#45;&gt;DataMapperModule -->
<g id="edge3" class="edge">
<title>ConstantFieldEditComponent&#45;&gt;DataMapperModule</title>
<path fill="none" stroke="#000000" d="M7516,-122.2479C7516,-145.0179 7516,-181 7516,-181 7516,-181 4109.5224,-181 4109.5224,-181"/>
<polygon fill="#000000" stroke="#000000" points="4109.5224,-177.5001 4099.5224,-181 4109.5224,-184.5001 4109.5224,-177.5001"/>
</g>
<!-- DataMapperAppComponent -->
<g id="node4" class="node">
<title>DataMapperAppComponent</title>
<polygon fill="#ffffb3" stroke="#000000" points="7406.9003,-122 7231.0997,-122 7231.0997,-86 7406.9003,-86 7406.9003,-122"/>
<text text-anchor="middle" x="7319" y="-99.8" font-family="Times,serif" font-size="14.00" fill="#000000">DataMapperAppComponent</text>
</g>
<!-- DataMapperAppComponent&#45;&gt;DataMapperModule -->
<g id="edge4" class="edge">
<title>DataMapperAppComponent&#45;&gt;DataMapperModule</title>
<path fill="none" stroke="#000000" d="M7319,-122.1554C7319,-144.3519 7319,-179 7319,-179 7319,-179 4109.8609,-179 4109.8609,-179"/>
<polygon fill="#000000" stroke="#000000" points="4109.861,-175.5001 4099.8609,-179 4109.8609,-182.5001 4109.861,-175.5001"/>
</g>
<!-- DataMapperAppExampleHostComponent -->
<g id="node5" class="node">
<title>DataMapperAppExampleHostComponent</title>
<polygon fill="#ffffb3" stroke="#000000" points="7212.6049,-122 6961.3951,-122 6961.3951,-86 7212.6049,-86 7212.6049,-122"/>
<text text-anchor="middle" x="7087" y="-99.8" font-family="Times,serif" font-size="14.00" fill="#000000">DataMapperAppExampleHostComponent</text>
</g>
<!-- DataMapperAppExampleHostComponent&#45;&gt;DataMapperModule -->
<g id="edge5" class="edge">
<title>DataMapperAppExampleHostComponent&#45;&gt;DataMapperModule</title>
<path fill="none" stroke="#000000" d="M7087,-122.0449C7087,-143.6623 7087,-177 7087,-177 7087,-177 4109.803,-177 4109.803,-177"/>
<polygon fill="#000000" stroke="#000000" points="4109.803,-173.5001 4099.803,-177 4109.8029,-180.5001 4109.803,-173.5001"/>
</g>
<!-- DataMapperErrorComponent -->
<g id="node6" class="node">
<title>DataMapperErrorComponent</title>
<polygon fill="#ffffb3" stroke="#000000" points="6943.3277,-122 6762.6723,-122 6762.6723,-86 6943.3277,-86 6943.3277,-122"/>
<text text-anchor="middle" x="6853" y="-99.8" font-family="Times,serif" font-size="14.00" fill="#000000">DataMapperErrorComponent</text>
</g>
<!-- DataMapperErrorComponent&#45;&gt;DataMapperModule -->
<g id="edge6" class="edge">
<title>DataMapperErrorComponent&#45;&gt;DataMapperModule</title>
<path fill="none" stroke="#000000" d="M6853,-122.2843C6853,-143.3211 6853,-175 6853,-175 6853,-175 4109.8293,-175 4109.8293,-175"/>
<polygon fill="#000000" stroke="#000000" points="4109.8293,-171.5001 4099.8293,-175 4109.8293,-178.5001 4109.8293,-171.5001"/>
</g>
<!-- DocumentDefinitionComponent -->
<g id="node7" class="node">
<title>DocumentDefinitionComponent</title>
<polygon fill="#ffffb3" stroke="#000000" points="6744.6937,-122 6547.3063,-122 6547.3063,-86 6744.6937,-86 6744.6937,-122"/>
<text text-anchor="middle" x="6646" y="-99.8" font-family="Times,serif" font-size="14.00" fill="#000000">DocumentDefinitionComponent</text>
</g>
<!-- DocumentDefinitionComponent&#45;&gt;DataMapperModule -->
<g id="edge7" class="edge">
<title>DocumentDefinitionComponent&#45;&gt;DataMapperModule</title>
<path fill="none" stroke="#000000" d="M6646,-122.0267C6646,-142.7672 6646,-174 6646,-174 6646,-174 4109.5419,-174 4109.5419,-174"/>
<polygon fill="#000000" stroke="#000000" points="4109.542,-170.5001 4099.5419,-174 4109.5419,-177.5001 4109.542,-170.5001"/>
</g>
<!-- DocumentFieldDetailComponent -->
<g id="node8" class="node">
<title>DocumentFieldDetailComponent</title>
<polygon fill="#ffffb3" stroke="#000000" points="6529.1357,-122 6326.8643,-122 6326.8643,-86 6529.1357,-86 6529.1357,-122"/>
<text text-anchor="middle" x="6428" y="-99.8" font-family="Times,serif" font-size="14.00" fill="#000000">DocumentFieldDetailComponent</text>
</g>
<!-- DocumentFieldDetailComponent&#45;&gt;DataMapperModule -->
<g id="edge8" class="edge">
<title>DocumentFieldDetailComponent&#45;&gt;DataMapperModule</title>
<path fill="none" stroke="#000000" d="M6428,-122.2228C6428,-142.3652 6428,-172 6428,-172 6428,-172 4109.6261,-172 4109.6261,-172"/>
<polygon fill="#000000" stroke="#000000" points="4109.6262,-168.5001 4099.6261,-172 4109.6261,-175.5001 4109.6262,-168.5001"/>
</g>
<!-- EmptyModalBodyComponent -->
<g id="node9" class="node">
<title>EmptyModalBodyComponent</title>
<polygon fill="#ffffb3" stroke="#000000" points="6308.5531,-122 6123.4469,-122 6123.4469,-86 6308.5531,-86 6308.5531,-122"/>
<text text-anchor="middle" x="6216" y="-99.8" font-family="Times,serif" font-size="14.00" fill="#000000">EmptyModalBodyComponent</text>
</g>
<!-- EmptyModalBodyComponent&#45;&gt;DataMapperModule -->
<g id="edge9" class="edge">
<title>EmptyModalBodyComponent&#45;&gt;DataMapperModule</title>
<path fill="none" stroke="#000000" d="M6216,-122.0348C6216,-141.5762 6216,-170 6216,-170 6216,-170 4109.6813,-170 4109.6813,-170"/>
<polygon fill="#000000" stroke="#000000" points="4109.6813,-166.5001 4099.6813,-170 4109.6812,-173.5001 4109.6813,-166.5001"/>
</g>
<!-- ExpressionComponent -->
<g id="node10" class="node">
<title>ExpressionComponent</title>
<polygon fill="#ffffb3" stroke="#000000" points="6104.5407,-122 5961.4593,-122 5961.4593,-86 6104.5407,-86 6104.5407,-122"/>
<text text-anchor="middle" x="6033" y="-99.8" font-family="Times,serif" font-size="14.00" fill="#000000">ExpressionComponent</text>
</g>
<!-- ExpressionComponent&#45;&gt;DataMapperModule -->
<g id="edge10" class="edge">
<title>ExpressionComponent&#45;&gt;DataMapperModule</title>
<path fill="none" stroke="#000000" d="M6033,-122.1061C6033,-141.3391 6033,-169 6033,-169 6033,-169 4109.7765,-169 4109.7765,-169"/>
<polygon fill="#000000" stroke="#000000" points="4109.7765,-165.5001 4099.7765,-169 4109.7765,-172.5001 4109.7765,-165.5001"/>
</g>
<!-- FieldEditComponent -->
<g id="node11" class="node">
<title>FieldEditComponent</title>
<polygon fill="#ffffb3" stroke="#000000" points="5943.9453,-122 5810.0547,-122 5810.0547,-86 5943.9453,-86 5943.9453,-122"/>
<text text-anchor="middle" x="5877" y="-99.8" font-family="Times,serif" font-size="14.00" fill="#000000">FieldEditComponent</text>
</g>
<!-- FieldEditComponent&#45;&gt;DataMapperModule -->
<g id="edge11" class="edge">
<title>FieldEditComponent&#45;&gt;DataMapperModule</title>
<path fill="none" stroke="#000000" d="M5877,-122.2222C5877,-140.8285 5877,-167 5877,-167 5877,-167 4109.7469,-167 4109.7469,-167"/>
<polygon fill="#000000" stroke="#000000" points="4109.747,-163.5001 4099.7469,-167 4109.7469,-170.5001 4109.747,-163.5001"/>
</g>
<!-- FocusDirective -->
<g id="node12" class="node">
<title>FocusDirective</title>
<polygon fill="#ffffb3" stroke="#000000" points="5792.5257,-122 5691.4743,-122 5691.4743,-86 5792.5257,-86 5792.5257,-122"/>
<text text-anchor="middle" x="5742" y="-99.8" font-family="Times,serif" font-size="14.00" fill="#000000">FocusDirective</text>
</g>
<!-- FocusDirective&#45;&gt;DataMapperModule -->
<g id="edge12" class="edge">
<title>FocusDirective&#45;&gt;DataMapperModule</title>
<path fill="none" stroke="#000000" d="M5742,-122.302C5742,-140.2699 5742,-165 5742,-165 5742,-165 4109.5735,-165 4109.5735,-165"/>
<polygon fill="#000000" stroke="#000000" points="4109.5736,-161.5001 4099.5735,-165 4109.5735,-168.5001 4109.5736,-161.5001"/>
</g>
<!-- LineMachineComponent -->
<g id="node13" class="node">
<title>LineMachineComponent</title>
<polygon fill="#ffffb3" stroke="#000000" points="5672.9692,-122 5517.0308,-122 5517.0308,-86 5672.9692,-86 5672.9692,-122"/>
<text text-anchor="middle" x="5595" y="-99.8" font-family="Times,serif" font-size="14.00" fill="#000000">LineMachineComponent</text>
</g>
<!-- LineMachineComponent&#45;&gt;DataMapperModule -->
<g id="edge13" class="edge">
<title>LineMachineComponent&#45;&gt;DataMapperModule</title>
<path fill="none" stroke="#000000" d="M5595,-122.0225C5595,-139.3734 5595,-163 5595,-163 5595,-163 4109.5528,-163 4109.5528,-163"/>
<polygon fill="#000000" stroke="#000000" points="4109.5529,-159.5001 4099.5528,-163 4109.5528,-166.5001 4109.5529,-159.5001"/>
</g>
<!-- LookupTableComponent -->
<g id="node14" class="node">
<title>LookupTableComponent</title>
<polygon fill="#ffffb3" stroke="#000000" points="5499.2576,-122 5342.7424,-122 5342.7424,-86 5499.2576,-86 5499.2576,-122"/>
<text text-anchor="middle" x="5421" y="-99.8" font-family="Times,serif" font-size="14.00" fill="#000000">LookupTableComponent</text>
</g>
<!-- LookupTableComponent&#45;&gt;DataMapperModule -->
<g id="edge14" class="edge">
<title>LookupTableComponent&#45;&gt;DataMapperModule</title>
<path fill="none" stroke="#000000" d="M5421,-122.0336C5421,-139.0597 5421,-162 5421,-162 5421,-162 4109.5296,-162 4109.5296,-162"/>
<polygon fill="#000000" stroke="#000000" points="4109.5296,-158.5001 4099.5296,-162 4109.5295,-165.5001 4109.5296,-158.5001"/>
</g>
<!-- MappingDetailComponent -->
<g id="node15" class="node">
<title>MappingDetailComponent</title>
<polygon fill="#ffffb3" stroke="#000000" points="5325.0898,-122 5158.9102,-122 5158.9102,-86 5325.0898,-86 5325.0898,-122"/>
<text text-anchor="middle" x="5242" y="-99.8" font-family="Times,serif" font-size="14.00" fill="#000000">MappingDetailComponent</text>
</g>
<!-- MappingDetailComponent&#45;&gt;DataMapperModule -->
<g id="edge15" class="edge">
<title>MappingDetailComponent&#45;&gt;DataMapperModule</title>
<path fill="none" stroke="#000000" d="M5242,-122.027C5242,-138.3976 5242,-160 5242,-160 5242,-160 4109.8936,-160 4109.8936,-160"/>
<polygon fill="#000000" stroke="#000000" points="4109.8936,-156.5001 4099.8936,-160 4109.8935,-163.5001 4109.8936,-156.5001"/>
</g>
<!-- MappingFieldActionArgumentComponent -->
<g id="node16" class="node">
<title>MappingFieldActionArgumentComponent</title>
<polygon fill="#ffffb3" stroke="#000000" points="5140.5264,-122 4885.4736,-122 4885.4736,-86 5140.5264,-86 5140.5264,-122"/>
<text text-anchor="middle" x="5013" y="-99.8" font-family="Times,serif" font-size="14.00" fill="#000000">MappingFieldActionArgumentComponent</text>
</g>
<!-- MappingFieldActionArgumentComponent&#45;&gt;DataMapperModule -->
<g id="edge16" class="edge">
<title>MappingFieldActionArgumentComponent&#45;&gt;DataMapperModule</title>
<path fill="none" stroke="#000000" d="M5013,-122.2819C5013,-137.9478 5013,-158 5013,-158 5013,-158 4109.5475,-158 4109.5475,-158"/>
<polygon fill="#000000" stroke="#000000" points="4109.5476,-154.5001 4099.5475,-158 4109.5475,-161.5001 4109.5476,-154.5001"/>
</g>
<!-- MappingFieldActionComponent -->
<g id="node17" class="node">
<title>MappingFieldActionComponent</title>
<polygon fill="#ffffb3" stroke="#000000" points="4867.2631,-122 4668.7369,-122 4668.7369,-86 4867.2631,-86 4867.2631,-122"/>
<text text-anchor="middle" x="4768" y="-99.8" font-family="Times,serif" font-size="14.00" fill="#000000">MappingFieldActionComponent</text>
</g>
<!-- MappingFieldActionComponent&#45;&gt;DataMapperModule -->
<g id="edge17" class="edge">
<title>MappingFieldActionComponent&#45;&gt;DataMapperModule</title>
<path fill="none" stroke="#000000" d="M4768,-122.2396C4768,-137.5706 4768,-157 4768,-157 4768,-157 4109.7273,-157 4109.7273,-157"/>
<polygon fill="#000000" stroke="#000000" points="4109.7274,-153.5001 4099.7273,-157 4109.7273,-160.5001 4109.7274,-153.5001"/>
</g>
<!-- MappingFieldContainerComponent -->
<g id="node18" class="node">
<title>MappingFieldContainerComponent</title>
<polygon fill="#ffffb3" stroke="#000000" points="4650.8682,-122 4435.1318,-122 4435.1318,-86 4650.8682,-86 4650.8682,-122"/>
<text text-anchor="middle" x="4543" y="-99.8" font-family="Times,serif" font-size="14.00" fill="#000000">MappingFieldContainerComponent</text>
</g>
<!-- MappingFieldContainerComponent&#45;&gt;DataMapperModule -->
<g id="edge18" class="edge">
<title>MappingFieldContainerComponent&#45;&gt;DataMapperModule</title>
<path fill="none" stroke="#000000" d="M4543,-122.1243C4543,-136.7832 4543,-155 4543,-155 4543,-155 4109.5963,-155 4109.5963,-155"/>
<polygon fill="#000000" stroke="#000000" points="4109.5964,-151.5001 4099.5963,-155 4109.5963,-158.5001 4109.5964,-151.5001"/>
</g>
<!-- MappingFieldDetailComponent -->
<g id="node19" class="node">
<title>MappingFieldDetailComponent</title>
<polygon fill="#ffffb3" stroke="#000000" points="4417.3682,-122 4222.6318,-122 4222.6318,-86 4417.3682,-86 4417.3682,-122"/>
<text text-anchor="middle" x="4320" y="-99.8" font-family="Times,serif" font-size="14.00" fill="#000000">MappingFieldDetailComponent</text>
</g>
<!-- MappingFieldDetailComponent&#45;&gt;DataMapperModule -->
<g id="edge19" class="edge">
<title>MappingFieldDetailComponent&#45;&gt;DataMapperModule</title>
<path fill="none" stroke="#000000" d="M4291.0079,-122.2458C4291.0079,-136.1772 4291.0079,-153 4291.0079,-153 4291.0079,-153 4109.6016,-153 4109.6016,-153"/>
<polygon fill="#000000" stroke="#000000" points="4109.6016,-149.5001 4099.6016,-153 4109.6016,-156.5001 4109.6016,-149.5001"/>
</g>
<!-- MappingListComponent -->
<g id="node20" class="node">
<title>MappingListComponent</title>
<polygon fill="#ffffb3" stroke="#000000" points="4204.661,-122 4051.339,-122 4051.339,-86 4204.661,-86 4204.661,-122"/>
<text text-anchor="middle" x="4128" y="-99.8" font-family="Times,serif" font-size="14.00" fill="#000000">MappingListComponent</text>
</g>
<!-- MappingListComponent&#45;&gt;DataMapperModule -->
<g id="edge20" class="edge">
<title>MappingListComponent&#45;&gt;DataMapperModule</title>
<path fill="none" stroke="#000000" d="M4075.4625,-122.1061C4075.4625,-122.1061 4075.4625,-140.991 4075.4625,-140.991"/>
<polygon fill="#000000" stroke="#000000" points="4071.9626,-140.9909 4075.4625,-150.991 4078.9626,-140.991 4071.9626,-140.9909"/>
</g>
<!-- MappingListFieldComponent -->
<g id="node21" class="node">
<title>MappingListFieldComponent</title>
<polygon fill="#ffffb3" stroke="#000000" points="4033.4395,-122 3850.5605,-122 3850.5605,-86 4033.4395,-86 4033.4395,-122"/>
<text text-anchor="middle" x="3942" y="-99.8" font-family="Times,serif" font-size="14.00" fill="#000000">MappingListFieldComponent</text>
</g>
<!-- MappingListFieldComponent&#45;&gt;DataMapperModule -->
<g id="edge21" class="edge">
<title>MappingListFieldComponent&#45;&gt;DataMapperModule</title>
<path fill="none" stroke="#000000" d="M4001.7321,-122.1061C4001.7321,-122.1061 4001.7321,-140.991 4001.7321,-140.991"/>
<polygon fill="#000000" stroke="#000000" points="3998.2322,-140.9909 4001.7321,-150.991 4005.2322,-140.991 3998.2322,-140.9909"/>
</g>
<!-- MappingSelectionComponent -->
<g id="node22" class="node">
<title>MappingSelectionComponent</title>
<polygon fill="#ffffb3" stroke="#000000" points="3832.9804,-122 3649.0196,-122 3649.0196,-86 3832.9804,-86 3832.9804,-122"/>
<text text-anchor="middle" x="3741" y="-99.8" font-family="Times,serif" font-size="14.00" fill="#000000">MappingSelectionComponent</text>
</g>
<!-- MappingSelectionComponent&#45;&gt;DataMapperModule -->
<g id="edge22" class="edge">
<title>MappingSelectionComponent&#45;&gt;DataMapperModule</title>
<path fill="none" stroke="#000000" d="M3761.713,-122.2458C3761.713,-136.1772 3761.713,-153 3761.713,-153 3761.713,-153 3960.2348,-153 3960.2348,-153"/>
<polygon fill="#000000" stroke="#000000" points="3960.2348,-156.5001 3970.2348,-153 3960.2348,-149.5001 3960.2348,-156.5001"/>
</g>
<!-- MappingSelectionSectionComponent -->
<g id="node23" class="node">
<title>MappingSelectionSectionComponent</title>
<polygon fill="#ffffb3" stroke="#000000" points="3630.9734,-122 3405.0266,-122 3405.0266,-86 3630.9734,-86 3630.9734,-122"/>
<text text-anchor="middle" x="3518" y="-99.8" font-family="Times,serif" font-size="14.00" fill="#000000">MappingSelectionSectionComponent</text>
</g>
<!-- MappingSelectionSectionComponent&#45;&gt;DataMapperModule -->
<g id="edge23" class="edge">
<title>MappingSelectionSectionComponent&#45;&gt;DataMapperModule</title>
<path fill="none" stroke="#000000" d="M3567.0949,-122.1243C3567.0949,-136.7832 3567.0949,-155 3567.0949,-155 3567.0949,-155 3960.431,-155 3960.431,-155"/>
<polygon fill="#000000" stroke="#000000" points="3960.4311,-158.5001 3970.431,-155 3960.431,-151.5001 3960.4311,-158.5001"/>
</g>
<!-- ModalErrorDetailComponent -->
<g id="node24" class="node">
<title>ModalErrorDetailComponent</title>
<polygon fill="#ffffb3" stroke="#000000" points="3386.6246,-122 3205.3754,-122 3205.3754,-86 3386.6246,-86 3386.6246,-122"/>
<text text-anchor="middle" x="3296" y="-99.8" font-family="Times,serif" font-size="14.00" fill="#000000">ModalErrorDetailComponent</text>
</g>
<!-- ModalErrorDetailComponent&#45;&gt;DataMapperModule -->
<g id="edge24" class="edge">
<title>ModalErrorDetailComponent&#45;&gt;DataMapperModule</title>
<path fill="none" stroke="#000000" d="M3296,-122.1871C3296,-137.1824 3296,-156 3296,-156 3296,-156 3960.3892,-156 3960.3892,-156"/>
<polygon fill="#000000" stroke="#000000" points="3960.3892,-159.5001 3970.3892,-156 3960.3892,-152.5001 3960.3892,-159.5001"/>
</g>
<!-- ModalErrorWindowComponent -->
<g id="node25" class="node">
<title>ModalErrorWindowComponent</title>
<polygon fill="#ffffb3" stroke="#000000" points="3186.6288,-122 2991.3712,-122 2991.3712,-86 3186.6288,-86 3186.6288,-122"/>
<text text-anchor="middle" x="3089" y="-99.8" font-family="Times,serif" font-size="14.00" fill="#000000">ModalErrorWindowComponent</text>
</g>
<!-- ModalErrorWindowComponent&#45;&gt;DataMapperModule -->
<g id="edge25" class="edge">
<title>ModalErrorWindowComponent&#45;&gt;DataMapperModule</title>
<path fill="none" stroke="#000000" d="M3089,-122.2819C3089,-137.9478 3089,-158 3089,-158 3089,-158 3960.3499,-158 3960.3499,-158"/>
<polygon fill="#000000" stroke="#000000" points="3960.3499,-161.5001 3970.3499,-158 3960.3499,-154.5001 3960.3499,-161.5001"/>
</g>
<!-- ModalWindowComponent -->
<g id="node26" class="node">
<title>ModalWindowComponent</title>
<polygon fill="#ffffb3" stroke="#000000" points="2973.094,-122 2806.906,-122 2806.906,-86 2973.094,-86 2973.094,-122"/>
<text text-anchor="middle" x="2890" y="-99.8" font-family="Times,serif" font-size="14.00" fill="#000000">ModalWindowComponent</text>
</g>
<!-- ModalWindowComponent&#45;&gt;DataMapperModule -->
<g id="edge26" class="edge">
<title>ModalWindowComponent&#45;&gt;DataMapperModule</title>
<path fill="none" stroke="#000000" d="M2890,-122.027C2890,-138.3976 2890,-160 2890,-160 2890,-160 3960.1592,-160 3960.1592,-160"/>
<polygon fill="#000000" stroke="#000000" points="3960.1592,-163.5001 3970.1592,-160 3960.1591,-156.5001 3960.1592,-163.5001"/>
</g>
<!-- NamespaceEditComponent -->
<g id="node27" class="node">
<title>NamespaceEditComponent</title>
<polygon fill="#ffffb3" stroke="#000000" points="2788.6811,-122 2619.3189,-122 2619.3189,-86 2788.6811,-86 2788.6811,-122"/>
<text text-anchor="middle" x="2704" y="-99.8" font-family="Times,serif" font-size="14.00" fill="#000000">NamespaceEditComponent</text>
</g>
<!-- NamespaceEditComponent&#45;&gt;DataMapperModule -->
<g id="edge27" class="edge">
<title>NamespaceEditComponent&#45;&gt;DataMapperModule</title>
<path fill="none" stroke="#000000" d="M2704,-122.0352C2704,-138.7344 2704,-161 2704,-161 2704,-161 3960.3533,-161 3960.3533,-161"/>
<polygon fill="#000000" stroke="#000000" points="3960.3533,-164.5001 3970.3533,-161 3960.3533,-157.5001 3960.3533,-164.5001"/>
</g>
<!-- NamespaceListComponent -->
<g id="node28" class="node">
<title>NamespaceListComponent</title>
<polygon fill="#ffffb3" stroke="#000000" points="2601.626,-122 2434.374,-122 2434.374,-86 2601.626,-86 2601.626,-122"/>
<text text-anchor="middle" x="2518" y="-99.8" font-family="Times,serif" font-size="14.00" fill="#000000">NamespaceListComponent</text>
</g>
<!-- NamespaceListComponent&#45;&gt;DataMapperModule -->
<g id="edge28" class="edge">
<title>NamespaceListComponent&#45;&gt;DataMapperModule</title>
<path fill="none" stroke="#000000" d="M2518,-122.0225C2518,-139.3734 2518,-163 2518,-163 2518,-163 3960.3017,-163 3960.3017,-163"/>
<polygon fill="#000000" stroke="#000000" points="3960.3017,-166.5001 3970.3017,-163 3960.3017,-159.5001 3960.3017,-166.5001"/>
</g>
<!-- PropertyFieldEditComponent -->
<g id="node29" class="node">
<title>PropertyFieldEditComponent</title>
<polygon fill="#ffffb3" stroke="#000000" points="2415.6539,-122 2234.3461,-122 2234.3461,-86 2415.6539,-86 2415.6539,-122"/>
<text text-anchor="middle" x="2325" y="-99.8" font-family="Times,serif" font-size="14.00" fill="#000000">PropertyFieldEditComponent</text>
</g>
<!-- PropertyFieldEditComponent&#45;&gt;DataMapperModule -->
<g id="edge29" class="edge">
<title>PropertyFieldEditComponent&#45;&gt;DataMapperModule</title>
<path fill="none" stroke="#000000" d="M2325,-122.302C2325,-140.2699 2325,-165 2325,-165 2325,-165 3960.313,-165 3960.313,-165"/>
<polygon fill="#000000" stroke="#000000" points="3960.313,-168.5001 3970.313,-165 3960.3129,-161.5001 3960.313,-168.5001"/>
</g>
<!-- TemplateEditComponent -->
<g id="node30" class="node">
<title>TemplateEditComponent</title>
<polygon fill="#ffffb3" stroke="#000000" points="2215.5351,-122 2058.4649,-122 2058.4649,-86 2215.5351,-86 2215.5351,-122"/>
<text text-anchor="middle" x="2137" y="-99.8" font-family="Times,serif" font-size="14.00" fill="#000000">TemplateEditComponent</text>
</g>
<!-- TemplateEditComponent&#45;&gt;DataMapperModule -->
<g id="edge30" class="edge">
<title>TemplateEditComponent&#45;&gt;DataMapperModule</title>
<path fill="none" stroke="#000000" d="M2137,-122.2667C2137,-140.5552 2137,-166 2137,-166 2137,-166 3960.2156,-166 3960.2156,-166"/>
<polygon fill="#000000" stroke="#000000" points="3960.2157,-169.5001 3970.2156,-166 3960.2156,-162.5001 3960.2157,-169.5001"/>
</g>
<!-- ToErrorIconClassPipe -->
<g id="node31" class="node">
<title>ToErrorIconClassPipe</title>
<polygon fill="#ffffb3" stroke="#000000" points="2040.6811,-122 1899.3189,-122 1899.3189,-86 2040.6811,-86 2040.6811,-122"/>
<text text-anchor="middle" x="1970" y="-99.8" font-family="Times,serif" font-size="14.00" fill="#000000">ToErrorIconClassPipe</text>
</g>
<!-- ToErrorIconClassPipe&#45;&gt;DataMapperModule -->
<g id="edge31" class="edge">
<title>ToErrorIconClassPipe&#45;&gt;DataMapperModule</title>
<path fill="none" stroke="#000000" d="M1970,-122.1686C1970,-141.0898 1970,-168 1970,-168 1970,-168 3960.3623,-168 3960.3623,-168"/>
<polygon fill="#000000" stroke="#000000" points="3960.3624,-171.5001 3970.3623,-168 3960.3623,-164.5001 3960.3624,-171.5001"/>
</g>
<!-- ToolbarComponent -->
<g id="node32" class="node">
<title>ToolbarComponent</title>
<polygon fill="#ffffb3" stroke="#000000" points="1881.6513,-122 1756.3487,-122 1756.3487,-86 1881.6513,-86 1881.6513,-122"/>
<text text-anchor="middle" x="1819" y="-99.8" font-family="Times,serif" font-size="14.00" fill="#000000">ToolbarComponent</text>
</g>
<!-- ToolbarComponent&#45;&gt;DataMapperModule -->
<g id="edge32" class="edge">
<title>ToolbarComponent&#45;&gt;DataMapperModule</title>
<path fill="none" stroke="#000000" d="M1819,-122.1061C1819,-141.3391 1819,-169 1819,-169 1819,-169 3960.4756,-169 3960.4756,-169"/>
<polygon fill="#000000" stroke="#000000" points="3960.4757,-172.5001 3970.4756,-169 3960.4756,-165.5001 3960.4757,-172.5001"/>
</g>
<!-- TransitionSelectionComponent -->
<g id="node33" class="node">
<title>TransitionSelectionComponent</title>
<polygon fill="#ffffb3" stroke="#000000" points="1738.4748,-122 1547.5252,-122 1547.5252,-86 1738.4748,-86 1738.4748,-122"/>
<text text-anchor="middle" x="1643" y="-99.8" font-family="Times,serif" font-size="14.00" fill="#000000">TransitionSelectionComponent</text>
</g>
<!-- TransitionSelectionComponent&#45;&gt;DataMapperModule -->
<g id="edge33" class="edge">
<title>TransitionSelectionComponent&#45;&gt;DataMapperModule</title>
<path fill="none" stroke="#000000" d="M1643,-122.308C1643,-142.1455 1643,-171 1643,-171 1643,-171 3960.4009,-171 3960.4009,-171"/>
<polygon fill="#000000" stroke="#000000" points="3960.4009,-174.5001 3970.4009,-171 3960.4008,-167.5001 3960.4009,-174.5001"/>
</g>
<!-- DataMapperAppComponent  -->
<g id="node36" class="node">
<title>DataMapperAppComponent </title>
<polygon fill="#fb8072" stroke="#000000" points="4359.3998,-252 4180.6002,-252 4180.6002,-216 4359.3998,-216 4359.3998,-252"/>
<text text-anchor="middle" x="4270" y="-229.8" font-family="Times,serif" font-size="14.00" fill="#000000">DataMapperAppComponent </text>
</g>
<!-- DataMapperModule&#45;&gt;DataMapperAppComponent  -->
<g id="edge35" class="edge">
<title>DataMapperModule&#45;&gt;DataMapperAppComponent </title>
<path fill="none" stroke="#000000" stroke-dasharray="5,2" d="M4099.5936,-186C4143.1419,-186 4192.6902,-186 4192.6902,-186 4192.6902,-186 4192.6902,-205.8533 4192.6902,-205.8533"/>
<polygon fill="#000000" stroke="#000000" points="4189.1903,-205.8532 4192.6902,-215.8533 4196.1903,-205.8533 4189.1903,-205.8532"/>
</g>
<!-- DataMapperAppExampleHostComponent  -->
<g id="node37" class="node">
<title>DataMapperAppExampleHostComponent </title>
<polygon fill="#fb8072" stroke="#000000" points="4162.6046,-252 3907.3954,-252 3907.3954,-216 4162.6046,-216 4162.6046,-252"/>
<text text-anchor="middle" x="4035" y="-229.8" font-family="Times,serif" font-size="14.00" fill="#000000">DataMapperAppExampleHostComponent </text>
</g>
<!-- DataMapperModule&#45;&gt;DataMapperAppExampleHostComponent  -->
<g id="edge36" class="edge">
<title>DataMapperModule&#45;&gt;DataMapperAppExampleHostComponent </title>
<path fill="none" stroke="#000000" stroke-dasharray="5,2" d="M4056.5851,-187.1061C4056.5851,-187.1061 4056.5851,-205.991 4056.5851,-205.991"/>
<polygon fill="#000000" stroke="#000000" points="4053.0852,-205.9909 4056.5851,-215.991 4060.0852,-205.991 4053.0852,-205.9909"/>
</g>
<!-- DataMapperModule&#45;&gt;DataMapperAppExampleHostComponent  -->
<g id="edge39" class="edge">
<title>DataMapperModule&#45;&gt;DataMapperAppExampleHostComponent </title>
<path fill="none" stroke="#000000" stroke-dasharray="1,5" d="M4013.4149,-187.1061C4013.4149,-187.1061 4013.4149,-205.991 4013.4149,-205.991"/>
<polygon fill="#000000" stroke="#000000" points="4009.915,-205.9909 4013.4149,-215.991 4016.915,-205.991 4009.915,-205.9909"/>
</g>
<!-- ModalErrorWindowComponent  -->
<g id="node38" class="node">
<title>ModalErrorWindowComponent </title>
<polygon fill="#fb8072" stroke="#000000" points="3889.6284,-252 3690.3716,-252 3690.3716,-216 3889.6284,-216 3889.6284,-252"/>
<text text-anchor="middle" x="3790" y="-229.8" font-family="Times,serif" font-size="14.00" fill="#000000">ModalErrorWindowComponent </text>
</g>
<!-- DataMapperModule&#45;&gt;ModalErrorWindowComponent  -->
<g id="edge37" class="edge">
<title>DataMapperModule&#45;&gt;ModalErrorWindowComponent </title>
<path fill="none" stroke="#000000" stroke-dasharray="5,2" d="M3970.3288,-186C3924.1514,-186 3870.1724,-186 3870.1724,-186 3870.1724,-186 3870.1724,-205.8533 3870.1724,-205.8533"/>
<polygon fill="#000000" stroke="#000000" points="3866.6724,-205.8532 3870.1724,-215.8533 3873.6724,-205.8533 3866.6724,-205.8532"/>
</g>
<!-- ModalWindowComponent  -->
<g id="node39" class="node">
<title>ModalWindowComponent </title>
<polygon fill="#fb8072" stroke="#000000" points="3672.5945,-252 3503.4055,-252 3503.4055,-216 3672.5945,-216 3672.5945,-252"/>
<text text-anchor="middle" x="3588" y="-229.8" font-family="Times,serif" font-size="14.00" fill="#000000">ModalWindowComponent </text>
</g>
<!-- DataMapperModule&#45;&gt;ModalWindowComponent  -->
<g id="edge38" class="edge">
<title>DataMapperModule&#45;&gt;ModalWindowComponent </title>
<path fill="none" stroke="#000000" stroke-dasharray="5,2" d="M3970.2644,-184C3863.1931,-184 3660.9034,-184 3660.9034,-184 3660.9034,-184 3660.9034,-205.9489 3660.9034,-205.9489"/>
<polygon fill="#000000" stroke="#000000" points="3657.4035,-205.9488 3660.9034,-215.9489 3664.4035,-205.9489 3657.4035,-205.9488"/>
</g>
<!-- AppRoutingModule -->
<g id="node35" class="node">
<title>AppRoutingModule</title>
<polygon fill="#8dd3c7" stroke="#000000" points="1524.2744,-122 1521.2744,-126 1500.2744,-126 1497.2744,-122 1395.7256,-122 1395.7256,-86 1524.2744,-86 1524.2744,-122"/>
<text text-anchor="middle" x="1460" y="-99.8" font-family="Times,serif" font-size="14.00" fill="#000000">AppRoutingModule</text>
</g>
<!-- AppRoutingModule&#45;&gt;DataMapperModule -->
<g id="edge34" class="edge">
<title>AppRoutingModule&#45;&gt;DataMapperModule</title>
<path fill="none" stroke="#000000" d="M1460,-122.1289C1460,-142.5724 1460,-173 1460,-173 1460,-173 3960.3832,-173 3960.3832,-173"/>
<polygon fill="#000000" stroke="#000000" points="3960.3832,-176.5001 3970.3832,-173 3960.3832,-169.5001 3960.3832,-176.5001"/>
</g>
<!-- DocumentManagementService -->
<g id="node40" class="node">
<title>DocumentManagementService</title>
<ellipse fill="#fdb462" stroke="#000000" cx="1241" cy="-104" rx="130.7602" ry="18"/>
<text text-anchor="middle" x="1241" y="-99.8" font-family="Times,serif" font-size="14.00" fill="#000000">DocumentManagementService</text>
</g>
<!-- DocumentManagementService&#45;&gt;DataMapperModule -->
<g id="edge40" class="edge">
<title>DocumentManagementService&#45;&gt;DataMapperModule</title>
<path fill="none" stroke="#000000" d="M1241,-122.0267C1241,-142.7672 1241,-174 1241,-174 1241,-174 3960.3861,-174 3960.3861,-174"/>
<polygon fill="#000000" stroke="#000000" points="3960.3861,-177.5001 3970.3861,-174 3960.3861,-170.5001 3960.3861,-177.5001"/>
</g>
<!-- ErrorHandlerService -->
<g id="node41" class="node">
<title>ErrorHandlerService</title>
<ellipse fill="#fdb462" stroke="#000000" cx="1001" cy="-104" rx="91.4288" ry="18"/>
<text text-anchor="middle" x="1001" y="-99.8" font-family="Times,serif" font-size="14.00" fill="#000000">ErrorHandlerService</text>
</g>
<!-- ErrorHandlerService&#45;&gt;DataMapperModule -->
<g id="edge41" class="edge">
<title>ErrorHandlerService&#45;&gt;DataMapperModule</title>
<path fill="none" stroke="#000000" d="M1001,-122.1686C1001,-143.498 1001,-176 1001,-176 1001,-176 3960.227,-176 3960.227,-176"/>
<polygon fill="#000000" stroke="#000000" points="3960.227,-179.5001 3970.227,-176 3960.2269,-172.5001 3960.227,-179.5001"/>
</g>
<!-- FieldActionService -->
<g id="node42" class="node">
<title>FieldActionService</title>
<ellipse fill="#fdb462" stroke="#000000" cx="805" cy="-104" rx="86.2503" ry="18"/>
<text text-anchor="middle" x="805" y="-99.8" font-family="Times,serif" font-size="14.00" fill="#000000">FieldActionService</text>
</g>
<!-- FieldActionService&#45;&gt;DataMapperModule -->
<g id="edge42" class="edge">
<title>FieldActionService&#45;&gt;DataMapperModule</title>
<path fill="none" stroke="#000000" d="M805,-122.2921C805,-144.2057 805,-178 805,-178 805,-178 3960.4795,-178 3960.4795,-178"/>
<polygon fill="#000000" stroke="#000000" points="3960.4796,-181.5001 3970.4795,-178 3960.4795,-174.5001 3960.4796,-181.5001"/>
</g>
<!-- FileManagementService -->
<g id="node43" class="node">
<title>FileManagementService</title>
<ellipse fill="#fdb462" stroke="#000000" cx="595" cy="-104" rx="105.3528" ry="18"/>
<text text-anchor="middle" x="595" y="-99.8" font-family="Times,serif" font-size="14.00" fill="#000000">FileManagementService</text>
</g>
<!-- FileManagementService&#45;&gt;DataMapperModule -->
<g id="edge43" class="edge">
<title>FileManagementService&#45;&gt;DataMapperModule</title>
<path fill="none" stroke="#000000" d="M595,-122.1554C595,-144.3519 595,-179 595,-179 595,-179 3960.4869,-179 3960.4869,-179"/>
<polygon fill="#000000" stroke="#000000" points="3960.4869,-182.5001 3970.4869,-179 3960.4869,-175.5001 3960.4869,-182.5001"/>
</g>
<!-- InitializationService -->
<g id="node44" class="node">
<title>InitializationService</title>
<ellipse fill="#fdb462" stroke="#000000" cx="382" cy="-104" rx="89.1761" ry="18"/>
<text text-anchor="middle" x="382" y="-99.8" font-family="Times,serif" font-size="14.00" fill="#000000">InitializationService</text>
</g>
<!-- InitializationService&#45;&gt;DataMapperModule -->
<g id="edge44" class="edge">
<title>InitializationService&#45;&gt;DataMapperModule</title>
<path fill="none" stroke="#000000" d="M382,-122.2479C382,-145.0179 382,-181 382,-181 382,-181 3960.4342,-181 3960.4342,-181"/>
<polygon fill="#000000" stroke="#000000" points="3960.4342,-184.5001 3970.4342,-181 3960.4342,-177.5001 3960.4342,-184.5001"/>
</g>
<!-- MappingManagementService -->
<g id="node45" class="node">
<title>MappingManagementService</title>
<ellipse fill="#fdb462" stroke="#000000" cx="149" cy="-104" rx="125.0451" ry="18"/>
<text text-anchor="middle" x="149" y="-99.8" font-family="Times,serif" font-size="14.00" fill="#000000">MappingManagementService</text>
</g>
<!-- MappingManagementService&#45;&gt;DataMapperModule -->
<g id="edge45" class="edge">
<title>MappingManagementService&#45;&gt;DataMapperModule</title>
<path fill="none" stroke="#000000" d="M149,-122.3228C149,-145.6602 149,-183 149,-183 149,-183 3960.3922,-183 3960.3922,-183"/>
<polygon fill="#000000" stroke="#000000" points="3960.3923,-186.5001 3970.3922,-183 3960.3922,-179.5001 3960.3923,-186.5001"/>
</g>
</g>
</svg>
