<?xml version="1.0" encoding="UTF-8" standalone="no"?>
<!DOCTYPE svg PUBLIC "-//W3C//DTD SVG 1.1//EN"
 "http://www.w3.org/Graphics/SVG/1.1/DTD/svg11.dtd">
<!-- Generated by graphviz version 2.40.1 (20161225.0304)
 -->
<!-- Title: dependencies Pages: 1 -->
<svg width="510pt" height="284pt"
 viewBox="0.00 0.00 510.00 284.00" xmlns="http://www.w3.org/2000/svg" xmlns:xlink="http://www.w3.org/1999/xlink">
<g id="graph0" class="graph" transform="scale(1 1) rotate(0) translate(4 280)">
<title>dependencies</title>
<polygon fill="#ffffff" stroke="transparent" points="-4,4 -4,-280 506,-280 506,4 -4,4"/>
<text text-anchor="start" x="230.0091" y="-42.4" font-family="sans-serif" font-weight="bold" font-size="14.00" fill="#000000">Legend</text>
<polygon fill="#ffffb3" stroke="transparent" points="17,-10 17,-30 37,-30 37,-10 17,-10"/>
<text text-anchor="start" x="40.629" y="-15.4" font-family="sans-serif" font-size="14.00" fill="#000000"> &#160;Declarations</text>
<polygon fill="#8dd3c7" stroke="transparent" points="130,-10 130,-30 150,-30 150,-10 130,-10"/>
<text text-anchor="start" x="153.7251" y="-15.4" font-family="sans-serif" font-size="14.00" fill="#000000"> &#160;Module</text>
<polygon fill="#80b1d3" stroke="transparent" points="216,-10 216,-30 236,-30 236,-10 216,-10"/>
<text text-anchor="start" x="239.7812" y="-15.4" font-family="sans-serif" font-size="14.00" fill="#000000"> &#160;Bootstrap</text>
<polygon fill="#fdb462" stroke="transparent" points="313,-10 313,-30 333,-30 333,-10 313,-10"/>
<text text-anchor="start" x="336.6732" y="-15.4" font-family="sans-serif" font-size="14.00" fill="#000000"> &#160;Providers</text>
<polygon fill="#fb8072" stroke="transparent" points="409,-10 409,-30 429,-30 429,-10 409,-10"/>
<text text-anchor="start" x="432.7258" y="-15.4" font-family="sans-serif" font-size="14.00" fill="#000000"> &#160;Exports</text>
<g id="clust1" class="cluster">
<title>cluster_ExampleAppModule</title>
<polygon fill="none" stroke="#000000" stroke-dasharray="1,5" points="8,-70 8,-268 494,-268 494,-70 8,-70"/>
</g>
<g id="clust2" class="cluster">
<title>cluster_ExampleAppModule_declarations</title>
<polygon fill="none" stroke="#000000" points="170,-78 170,-130 486,-130 486,-78 170,-78"/>
</g>
<g id="clust5" class="cluster">
<title>cluster_ExampleAppModule_imports</title>
<polygon fill="none" stroke="#000000" points="16,-78 16,-130 162,-130 162,-78 16,-78"/>
</g>
<g id="clust7" class="cluster">
<title>cluster_ExampleAppModule_bootstrap</title>
<polygon fill="none" stroke="#000000" points="90,-208 90,-260 412,-260 412,-208 90,-208"/>
</g>
<!-- AppComponent -->
<g id="node1" class="node">
<title>AppComponent</title>
<polygon fill="#ffffb3" stroke="#000000" points="477.9399,-122 372.0601,-122 372.0601,-86 477.9399,-86 477.9399,-122"/>
<text text-anchor="middle" x="425" y="-99.8" font-family="Times,serif" font-size="14.00" fill="#000000">AppComponent</text>
</g>
<!-- ExampleAppModule -->
<g id="node3" class="node">
<title>ExampleAppModule</title>
<polygon fill="#8dd3c7" stroke="#000000" points="332.9201,-187 329.9201,-191 308.9201,-191 305.9201,-187 199.0799,-187 199.0799,-151 332.9201,-151 332.9201,-187"/>
<text text-anchor="middle" x="266" y="-164.8" font-family="Times,serif" font-size="14.00" fill="#000000">ExampleAppModule</text>
</g>
<!-- AppComponent&#45;&gt;ExampleAppModule -->
<g id="edge1" class="edge">
<title>AppComponent&#45;&gt;ExampleAppModule</title>
<path fill="none" stroke="#000000" d="M388.375,-122.1061C388.375,-141.3391 388.375,-169 388.375,-169 388.375,-169 342.9164,-169 342.9164,-169"/>
<polygon fill="#000000" stroke="#000000" points="342.9164,-165.5001 332.9164,-169 342.9163,-172.5001 342.9164,-165.5001"/>
</g>
<!-- AtlasmapNavbarComponent -->
<g id="node2" class="node">
<title>AtlasmapNavbarComponent</title>
<polygon fill="#ffffb3" stroke="#000000" points="354.1811,-122 177.8189,-122 177.8189,-86 354.1811,-86 354.1811,-122"/>
<text text-anchor="middle" x="266" y="-99.8" font-family="Times,serif" font-size="14.00" fill="#000000">AtlasmapNavbarComponent</text>
</g>
<!-- AtlasmapNavbarComponent&#45;&gt;ExampleAppModule -->
<g id="edge2" class="edge">
<title>AtlasmapNavbarComponent&#45;&gt;ExampleAppModule</title>
<path fill="none" stroke="#000000" d="M266,-122.1061C266,-122.1061 266,-140.991 266,-140.991"/>
<polygon fill="#000000" stroke="#000000" points="262.5001,-140.9909 266,-150.991 269.5001,-140.991 262.5001,-140.9909"/>
</g>
<!-- AppComponent  -->
<g id="node5" class="node">
<title>AppComponent </title>
<polygon fill="#80b1d3" stroke="#000000" points="404.439,-252 295.561,-252 295.561,-216 404.439,-216 404.439,-252"/>
<text text-anchor="middle" x="350" y="-229.8" font-family="Times,serif" font-size="14.00" fill="#000000">AppComponent </text>
</g>
<!-- ExampleAppModule&#45;&gt;AppComponent  -->
<g id="edge4" class="edge">
<title>ExampleAppModule&#45;&gt;AppComponent </title>
<path fill="none" stroke="#000000" stroke-dasharray="1,5" d="M314.1201,-187.1061C314.1201,-187.1061 314.1201,-205.991 314.1201,-205.991"/>
<polygon fill="#000000" stroke="#000000" points="310.6202,-205.9909 314.1201,-215.991 317.6202,-205.991 310.6202,-205.9909"/>
</g>
<!-- AtlasmapNavbarComponent  -->
<g id="node6" class="node">
<title>AtlasmapNavbarComponent </title>
<polygon fill="#80b1d3" stroke="#000000" points="277.6813,-252 98.3187,-252 98.3187,-216 277.6813,-216 277.6813,-252"/>
<text text-anchor="middle" x="188" y="-229.8" font-family="Times,serif" font-size="14.00" fill="#000000">AtlasmapNavbarComponent </text>
</g>
<!-- ExampleAppModule&#45;&gt;AtlasmapNavbarComponent  -->
<g id="edge5" class="edge">
<title>ExampleAppModule&#45;&gt;AtlasmapNavbarComponent </title>
<path fill="none" stroke="#000000" stroke-dasharray="1,5" d="M238.5654,-187.1061C238.5654,-187.1061 238.5654,-205.991 238.5654,-205.991"/>
<polygon fill="#000000" stroke="#000000" points="235.0655,-205.9909 238.5654,-215.991 242.0655,-205.991 235.0655,-205.9909"/>
</g>
<!-- DataMapperModule -->
<g id="node4" class="node">
<title>DataMapperModule</title>
<polygon fill="#8dd3c7" stroke="#000000" points="153.5115,-122 150.5115,-126 129.5115,-126 126.5115,-122 24.4885,-122 24.4885,-86 153.5115,-86 153.5115,-122"/>
<text text-anchor="middle" x="89" y="-99.8" font-family="Times,serif" font-size="14.00" fill="#000000">DataMapperModule</text>
</g>
<!-- DataMapperModule&#45;&gt;ExampleAppModule -->
<g id="edge3" class="edge">
<title>DataMapperModule&#45;&gt;ExampleAppModule</title>
<path fill="none" stroke="#000000" d="M125.9574,-122.1061C125.9574,-141.3391 125.9574,-169 125.9574,-169 125.9574,-169 189.2599,-169 189.2599,-169"/>
<polygon fill="#000000" stroke="#000000" points="189.2599,-172.5001 199.2599,-169 189.2598,-165.5001 189.2599,-172.5001"/>
</g>
</g>
</svg>
