<?xml version="1.0" encoding="UTF-8" standalone="no"?>
<!DOCTYPE svg PUBLIC "-//W3C//DTD SVG 1.1//EN"
 "http://www.w3.org/Graphics/SVG/1.1/DTD/svg11.dtd">
<!-- Generated by graphviz version 2.40.1 (20161225.0304)
 -->
<!-- Title: dependencies Pages: 1 -->
<svg width="8355pt" height="355pt"
 viewBox="0.00 0.00 8355.00 355.00" xmlns="http://www.w3.org/2000/svg" xmlns:xlink="http://www.w3.org/1999/xlink">
<g id="graph0" class="graph" transform="scale(1 1) rotate(0) translate(4 351)">
<title>dependencies</title>
<polygon fill="#ffffff" stroke="transparent" points="-4,4 -4,-351 8351,-351 8351,4 -4,4"/>
<text text-anchor="start" x="4152.5091" y="-42.4" font-family="sans-serif" font-weight="bold" font-size="14.00" fill="#000000">Legend</text>
<polygon fill="#ffffb3" stroke="transparent" points="3939.5,-10 3939.5,-30 3959.5,-30 3959.5,-10 3939.5,-10"/>
<text text-anchor="start" x="3963.129" y="-15.4" font-family="sans-serif" font-size="14.00" fill="#000000"> &#160;Declarations</text>
<polygon fill="#8dd3c7" stroke="transparent" points="4052.5,-10 4052.5,-30 4072.5,-30 4072.5,-10 4052.5,-10"/>
<text text-anchor="start" x="4076.2251" y="-15.4" font-family="sans-serif" font-size="14.00" fill="#000000"> &#160;Module</text>
<polygon fill="#80b1d3" stroke="transparent" points="4138.5,-10 4138.5,-30 4158.5,-30 4158.5,-10 4138.5,-10"/>
<text text-anchor="start" x="4162.2812" y="-15.4" font-family="sans-serif" font-size="14.00" fill="#000000"> &#160;Bootstrap</text>
<polygon fill="#fdb462" stroke="transparent" points="4235.5,-10 4235.5,-30 4255.5,-30 4255.5,-10 4235.5,-10"/>
<text text-anchor="start" x="4259.1732" y="-15.4" font-family="sans-serif" font-size="14.00" fill="#000000"> &#160;Providers</text>
<polygon fill="#fb8072" stroke="transparent" points="4331.5,-10 4331.5,-30 4351.5,-30 4351.5,-10 4331.5,-10"/>
<text text-anchor="start" x="4355.2258" y="-15.4" font-family="sans-serif" font-size="14.00" fill="#000000"> &#160;Exports</text>
<g id="clust7" class="cluster">
<title>cluster_DataMapperModule</title>
<polygon fill="none" stroke="#000000" stroke-dasharray="1,5" points="8,-70 8,-271 7993,-271 7993,-70 8,-70"/>
</g>
<g id="clust8" class="cluster">
<title>cluster_DataMapperModule_declarations</title>
<polygon fill="none" stroke="#000000" points="1540,-78 1540,-130 7985,-130 7985,-78 1540,-78"/>
</g>
<g id="clust42" class="cluster">
<title>cluster_DataMapperModule_imports</title>
<polygon fill="none" stroke="#000000" points="1388,-78 1388,-130 1532,-130 1532,-78 1388,-78"/>
</g>
<g id="clust43" class="cluster">
<title>cluster_DataMapperModule_exports</title>
<polygon fill="none" stroke="#000000" points="3588,-211 3588,-263 4460,-263 4460,-211 3588,-211"/>
</g>
<g id="clust45" class="cluster">
<title>cluster_DataMapperModule_providers</title>
<polygon fill="none" stroke="#000000" points="16,-78 16,-130 1380,-130 1380,-78 16,-78"/>
</g>
<g id="clust46" class="cluster">
<title>cluster_ExampleAppModule</title>
<polygon fill="none" stroke="#000000" stroke-dasharray="1,5" points="8001,-138 8001,-339 8339,-339 8339,-138 8001,-138"/>
</g>
<g id="clust47" class="cluster">
<title>cluster_ExampleAppModule_declarations</title>
<polygon fill="none" stroke="#000000" points="8010,-146 8010,-198 8326,-198 8326,-146 8010,-146"/>
</g>
<g id="clust52" class="cluster">
<title>cluster_ExampleAppModule_bootstrap</title>
<polygon fill="none" stroke="#000000" points="8009,-279 8009,-331 8331,-331 8331,-279 8009,-279"/>
</g>
<!-- ClassNameComponent -->
<g id="node1" class="node">
<title>ClassNameComponent</title>
<polygon fill="#ffffb3" stroke="#000000" points="7976.5898,-122 7831.4102,-122 7831.4102,-86 7976.5898,-86 7976.5898,-122"/>
<text text-anchor="middle" x="7904" y="-99.8" font-family="Times,serif" font-size="14.00" fill="#000000">ClassNameComponent</text>
</g>
<!-- DataMapperModule -->
<g id="node34" class="node">
<title>DataMapperModule</title>
<polygon fill="#8dd3c7" stroke="#000000" points="4192.5115,-190 4189.5115,-194 4168.5115,-194 4165.5115,-190 4063.4885,-190 4063.4885,-154 4192.5115,-154 4192.5115,-190"/>
<text text-anchor="middle" x="4128" y="-167.8" font-family="Times,serif" font-size="14.00" fill="#000000">DataMapperModule</text>
</g>
<!-- ClassNameComponent&#45;&gt;DataMapperModule -->
<g id="edge1" class="edge">
<title>ClassNameComponent&#45;&gt;DataMapperModule</title>
<path fill="none" stroke="#000000" d="M7904,-122.1985C7904,-146.3563 7904,-186 7904,-186 7904,-186 4202.7451,-186 4202.7451,-186"/>
<polygon fill="#000000" stroke="#000000" points="4202.7451,-182.5001 4192.7451,-186 4202.7451,-189.5001 4202.7451,-182.5001"/>
</g>
<!-- CollapsableHeaderComponent -->
<g id="node2" class="node">
<title>CollapsableHeaderComponent</title>
<polygon fill="#ffffb3" stroke="#000000" points="7813.8403,-122 7626.1597,-122 7626.1597,-86 7813.8403,-86 7813.8403,-122"/>
<text text-anchor="middle" x="7720" y="-99.8" font-family="Times,serif" font-size="14.00" fill="#000000">CollapsableHeaderComponent</text>
</g>
<!-- CollapsableHeaderComponent&#45;&gt;DataMapperModule -->
<g id="edge2" class="edge">
<title>CollapsableHeaderComponent&#45;&gt;DataMapperModule</title>
<path fill="none" stroke="#000000" d="M7720,-122.1532C7720,-145.7566 7720,-184 7720,-184 7720,-184 4202.6391,-184 4202.6391,-184"/>
<polygon fill="#000000" stroke="#000000" points="4202.6391,-180.5001 4192.6391,-184 4202.6391,-187.5001 4202.6391,-180.5001"/>
</g>
<!-- ConstantFieldEditComponent -->
<g id="node3" class="node">
<title>ConstantFieldEditComponent</title>
<polygon fill="#ffffb3" stroke="#000000" points="7607.7217,-122 7424.2783,-122 7424.2783,-86 7607.7217,-86 7607.7217,-122"/>
<text text-anchor="middle" x="7516" y="-99.8" font-family="Times,serif" font-size="14.00" fill="#000000">ConstantFieldEditComponent</text>
</g>
<!-- ConstantFieldEditComponent&#45;&gt;DataMapperModule -->
<g id="edge3" class="edge">
<title>ConstantFieldEditComponent&#45;&gt;DataMapperModule</title>
<path fill="none" stroke="#000000" d="M7516,-122.0908C7516,-145.1328 7516,-182 7516,-182 7516,-182 4202.6545,-182 4202.6545,-182"/>
<polygon fill="#000000" stroke="#000000" points="4202.6545,-178.5001 4192.6545,-182 4202.6545,-185.5001 4202.6545,-178.5001"/>
</g>
<!-- DataMapperAppComponent -->
<g id="node4" class="node">
<title>DataMapperAppComponent</title>
<polygon fill="#ffffb3" stroke="#000000" points="7406.9003,-122 7231.0997,-122 7231.0997,-86 7406.9003,-86 7406.9003,-122"/>
<text text-anchor="middle" x="7319" y="-99.8" font-family="Times,serif" font-size="14.00" fill="#000000">DataMapperAppComponent</text>
</g>
<!-- DataMapperAppComponent&#45;&gt;DataMapperModule -->
<g id="edge4" class="edge">
<title>DataMapperAppComponent&#45;&gt;DataMapperModule</title>
<path fill="none" stroke="#000000" d="M7319,-122.2479C7319,-145.0179 7319,-181 7319,-181 7319,-181 4202.8245,-181 4202.8245,-181"/>
<polygon fill="#000000" stroke="#000000" points="4202.8245,-177.5001 4192.8245,-181 4202.8245,-184.5001 4202.8245,-177.5001"/>
</g>
<!-- DataMapperAppExampleHostComponent -->
<g id="node5" class="node">
<title>DataMapperAppExampleHostComponent</title>
<polygon fill="#ffffb3" stroke="#000000" points="7212.6049,-122 6961.3951,-122 6961.3951,-86 7212.6049,-86 7212.6049,-122"/>
<text text-anchor="middle" x="7087" y="-99.8" font-family="Times,serif" font-size="14.00" fill="#000000">DataMapperAppExampleHostComponent</text>
</g>
<!-- DataMapperAppExampleHostComponent&#45;&gt;DataMapperModule -->
<g id="edge5" class="edge">
<title>DataMapperAppExampleHostComponent&#45;&gt;DataMapperModule</title>
<path fill="none" stroke="#000000" d="M7087,-122.1554C7087,-144.3519 7087,-179 7087,-179 7087,-179 4202.5548,-179 4202.5548,-179"/>
<polygon fill="#000000" stroke="#000000" points="4202.5548,-175.5001 4192.5548,-179 4202.5547,-182.5001 4202.5548,-175.5001"/>
</g>
<!-- DataMapperErrorComponent -->
<g id="node6" class="node">
<title>DataMapperErrorComponent</title>
<polygon fill="#ffffb3" stroke="#000000" points="6943.3277,-122 6762.6723,-122 6762.6723,-86 6943.3277,-86 6943.3277,-122"/>
<text text-anchor="middle" x="6853" y="-99.8" font-family="Times,serif" font-size="14.00" fill="#000000">DataMapperErrorComponent</text>
</g>
<!-- DataMapperErrorComponent&#45;&gt;DataMapperModule -->
<g id="edge6" class="edge">
<title>DataMapperErrorComponent&#45;&gt;DataMapperModule</title>
<path fill="none" stroke="#000000" d="M6853,-122.0449C6853,-143.6623 6853,-177 6853,-177 6853,-177 4202.6722,-177 4202.6722,-177"/>
<polygon fill="#000000" stroke="#000000" points="4202.6722,-173.5001 4192.6722,-177 4202.6722,-180.5001 4202.6722,-173.5001"/>
</g>
<!-- DocumentDefinitionComponent -->
<g id="node7" class="node">
<title>DocumentDefinitionComponent</title>
<polygon fill="#ffffb3" stroke="#000000" points="6744.6937,-122 6547.3063,-122 6547.3063,-86 6744.6937,-86 6744.6937,-122"/>
<text text-anchor="middle" x="6646" y="-99.8" font-family="Times,serif" font-size="14.00" fill="#000000">DocumentDefinitionComponent</text>
</g>
<!-- DocumentDefinitionComponent&#45;&gt;DataMapperModule -->
<g id="edge7" class="edge">
<title>DocumentDefinitionComponent&#45;&gt;DataMapperModule</title>
<path fill="none" stroke="#000000" d="M6646,-122.1686C6646,-143.498 6646,-176 6646,-176 6646,-176 4202.7734,-176 4202.7734,-176"/>
<polygon fill="#000000" stroke="#000000" points="4202.7735,-172.5001 4192.7734,-176 4202.7734,-179.5001 4202.7735,-172.5001"/>
</g>
<!-- DocumentFieldDetailComponent -->
<g id="node8" class="node">
<title>DocumentFieldDetailComponent</title>
<polygon fill="#ffffb3" stroke="#000000" points="6529.1357,-122 6326.8643,-122 6326.8643,-86 6529.1357,-86 6529.1357,-122"/>
<text text-anchor="middle" x="6428" y="-99.8" font-family="Times,serif" font-size="14.00" fill="#000000">DocumentFieldDetailComponent</text>
</g>
<!-- DocumentFieldDetailComponent&#45;&gt;DataMapperModule -->
<g id="edge8" class="edge">
<title>DocumentFieldDetailComponent&#45;&gt;DataMapperModule</title>
<path fill="none" stroke="#000000" d="M6428,-122.0267C6428,-142.7672 6428,-174 6428,-174 6428,-174 4202.5213,-174 4202.5213,-174"/>
<polygon fill="#000000" stroke="#000000" points="4202.5214,-170.5001 4192.5213,-174 4202.5213,-177.5001 4202.5214,-170.5001"/>
</g>
<!-- EmptyModalBodyComponent -->
<g id="node9" class="node">
<title>EmptyModalBodyComponent</title>
<polygon fill="#ffffb3" stroke="#000000" points="6308.5531,-122 6123.4469,-122 6123.4469,-86 6308.5531,-86 6308.5531,-122"/>
<text text-anchor="middle" x="6216" y="-99.8" font-family="Times,serif" font-size="14.00" fill="#000000">EmptyModalBodyComponent</text>
</g>
<!-- EmptyModalBodyComponent&#45;&gt;DataMapperModule -->
<g id="edge9" class="edge">
<title>EmptyModalBodyComponent&#45;&gt;DataMapperModule</title>
<path fill="none" stroke="#000000" d="M6216,-122.2228C6216,-142.3652 6216,-172 6216,-172 6216,-172 4202.7793,-172 4202.7793,-172"/>
<polygon fill="#000000" stroke="#000000" points="4202.7793,-168.5001 4192.7793,-172 4202.7793,-175.5001 4202.7793,-168.5001"/>
</g>
<!-- ExpressionComponent -->
<g id="node10" class="node">
<title>ExpressionComponent</title>
<polygon fill="#ffffb3" stroke="#000000" points="6104.5407,-122 5961.4593,-122 5961.4593,-86 6104.5407,-86 6104.5407,-122"/>
<text text-anchor="middle" x="6033" y="-99.8" font-family="Times,serif" font-size="14.00" fill="#000000">ExpressionComponent</text>
</g>
<!-- ExpressionComponent&#45;&gt;DataMapperModule -->
<g id="edge10" class="edge">
<title>ExpressionComponent&#45;&gt;DataMapperModule</title>
<path fill="none" stroke="#000000" d="M6033,-122.308C6033,-142.1455 6033,-171 6033,-171 6033,-171 4202.7486,-171 4202.7486,-171"/>
<polygon fill="#000000" stroke="#000000" points="4202.7486,-167.5001 4192.7486,-171 4202.7485,-174.5001 4202.7486,-167.5001"/>
</g>
<!-- FieldEditComponent -->
<g id="node11" class="node">
<title>FieldEditComponent</title>
<polygon fill="#ffffb3" stroke="#000000" points="5943.9453,-122 5810.0547,-122 5810.0547,-86 5943.9453,-86 5943.9453,-122"/>
<text text-anchor="middle" x="5877" y="-99.8" font-family="Times,serif" font-size="14.00" fill="#000000">FieldEditComponent</text>
</g>
<!-- FieldEditComponent&#45;&gt;DataMapperModule -->
<g id="edge11" class="edge">
<title>FieldEditComponent&#45;&gt;DataMapperModule</title>
<path fill="none" stroke="#000000" d="M5877,-122.1061C5877,-141.3391 5877,-169 5877,-169 5877,-169 4202.5835,-169 4202.5835,-169"/>
<polygon fill="#000000" stroke="#000000" points="4202.5836,-165.5001 4192.5835,-169 4202.5835,-172.5001 4202.5836,-165.5001"/>
</g>
<!-- FocusDirective -->
<g id="node12" class="node">
<title>FocusDirective</title>
<polygon fill="#ffffb3" stroke="#000000" points="5792.5257,-122 5691.4743,-122 5691.4743,-86 5792.5257,-86 5792.5257,-122"/>
<text text-anchor="middle" x="5742" y="-99.8" font-family="Times,serif" font-size="14.00" fill="#000000">FocusDirective</text>
</g>
<!-- FocusDirective&#45;&gt;DataMapperModule -->
<g id="edge12" class="edge">
<title>FocusDirective&#45;&gt;DataMapperModule</title>
<path fill="none" stroke="#000000" d="M5742,-122.1686C5742,-141.0898 5742,-168 5742,-168 5742,-168 4202.5168,-168 4202.5168,-168"/>
<polygon fill="#000000" stroke="#000000" points="4202.5168,-164.5001 4192.5168,-168 4202.5168,-171.5001 4202.5168,-164.5001"/>
</g>
<!-- LineMachineComponent -->
<g id="node13" class="node">
<title>LineMachineComponent</title>
<polygon fill="#ffffb3" stroke="#000000" points="5672.9692,-122 5517.0308,-122 5517.0308,-86 5672.9692,-86 5672.9692,-122"/>
<text text-anchor="middle" x="5595" y="-99.8" font-family="Times,serif" font-size="14.00" fill="#000000">LineMachineComponent</text>
</g>
<!-- LineMachineComponent&#45;&gt;DataMapperModule -->
<g id="edge13" class="edge">
<title>LineMachineComponent&#45;&gt;DataMapperModule</title>
<path fill="none" stroke="#000000" d="M5595,-122.2667C5595,-140.5552 5595,-166 5595,-166 5595,-166 4202.928,-166 4202.928,-166"/>
<polygon fill="#000000" stroke="#000000" points="4202.9281,-162.5001 4192.928,-166 4202.928,-169.5001 4202.9281,-162.5001"/>
</g>
<!-- LookupTableComponent -->
<g id="node14" class="node">
<title>LookupTableComponent</title>
<polygon fill="#ffffb3" stroke="#000000" points="5499.2576,-122 5342.7424,-122 5342.7424,-86 5499.2576,-86 5499.2576,-122"/>
<text text-anchor="middle" x="5421" y="-99.8" font-family="Times,serif" font-size="14.00" fill="#000000">LookupTableComponent</text>
</g>
<!-- LookupTableComponent&#45;&gt;DataMapperModule -->
<g id="edge14" class="edge">
<title>LookupTableComponent&#45;&gt;DataMapperModule</title>
<path fill="none" stroke="#000000" d="M5421,-122.002C5421,-139.6754 5421,-164 5421,-164 5421,-164 4202.5625,-164 4202.5625,-164"/>
<polygon fill="#000000" stroke="#000000" points="4202.5625,-160.5001 4192.5625,-164 4202.5624,-167.5001 4202.5625,-160.5001"/>
</g>
<!-- MappingDetailComponent -->
<g id="node15" class="node">
<title>MappingDetailComponent</title>
<polygon fill="#ffffb3" stroke="#000000" points="5325.0898,-122 5158.9102,-122 5158.9102,-86 5325.0898,-86 5325.0898,-122"/>
<text text-anchor="middle" x="5242" y="-99.8" font-family="Times,serif" font-size="14.00" fill="#000000">MappingDetailComponent</text>
</g>
<!-- MappingDetailComponent&#45;&gt;DataMapperModule -->
<g id="edge15" class="edge">
<title>MappingDetailComponent&#45;&gt;DataMapperModule</title>
<path fill="none" stroke="#000000" d="M5242,-122.0225C5242,-139.3734 5242,-163 5242,-163 5242,-163 4202.7085,-163 4202.7085,-163"/>
<polygon fill="#000000" stroke="#000000" points="4202.7085,-159.5001 4192.7085,-163 4202.7084,-166.5001 4202.7085,-159.5001"/>
</g>
<!-- MappingFieldActionArgumentComponent -->
<g id="node16" class="node">
<title>MappingFieldActionArgumentComponent</title>
<polygon fill="#ffffb3" stroke="#000000" points="5140.5264,-122 4885.4736,-122 4885.4736,-86 5140.5264,-86 5140.5264,-122"/>
<text text-anchor="middle" x="5013" y="-99.8" font-family="Times,serif" font-size="14.00" fill="#000000">MappingFieldActionArgumentComponent</text>
</g>
<!-- MappingFieldActionArgumentComponent&#45;&gt;DataMapperModule -->
<g id="edge16" class="edge">
<title>MappingFieldActionArgumentComponent&#45;&gt;DataMapperModule</title>
<path fill="none" stroke="#000000" d="M5055.5877,-122.0352C5055.5877,-138.7344 5055.5877,-161 5055.5877,-161 5055.5877,-161 4202.8575,-161 4202.8575,-161"/>
<polygon fill="#000000" stroke="#000000" points="4202.8575,-157.5001 4192.8575,-161 4202.8575,-164.5001 4202.8575,-157.5001"/>
</g>
<!-- MappingFieldActionComponent -->
<g id="node17" class="node">
<title>MappingFieldActionComponent</title>
<polygon fill="#ffffb3" stroke="#000000" points="4867.2631,-122 4668.7369,-122 4668.7369,-86 4867.2631,-86 4867.2631,-122"/>
<text text-anchor="middle" x="4768" y="-99.8" font-family="Times,serif" font-size="14.00" fill="#000000">MappingFieldActionComponent</text>
</g>
<!-- MappingFieldActionComponent&#45;&gt;DataMapperModule -->
<g id="edge17" class="edge">
<title>MappingFieldActionComponent&#45;&gt;DataMapperModule</title>
<path fill="none" stroke="#000000" d="M4768,-122.0091C4768,-138.0494 4768,-159 4768,-159 4768,-159 4202.592,-159 4202.592,-159"/>
<polygon fill="#000000" stroke="#000000" points="4202.592,-155.5001 4192.592,-159 4202.592,-162.5001 4202.592,-155.5001"/>
</g>
<!-- MappingFieldContainerComponent -->
<g id="node18" class="node">
<title>MappingFieldContainerComponent</title>
<polygon fill="#ffffb3" stroke="#000000" points="4650.8682,-122 4435.1318,-122 4435.1318,-86 4650.8682,-86 4650.8682,-122"/>
<text text-anchor="middle" x="4543" y="-99.8" font-family="Times,serif" font-size="14.00" fill="#000000">MappingFieldContainerComponent</text>
</g>
<!-- MappingFieldContainerComponent&#45;&gt;DataMapperModule -->
<g id="edge18" class="edge">
<title>MappingFieldContainerComponent&#45;&gt;DataMapperModule</title>
<path fill="none" stroke="#000000" d="M4443.7579,-122.2819C4443.7579,-137.9478 4443.7579,-158 4443.7579,-158 4443.7579,-158 4202.6603,-158 4202.6603,-158"/>
<polygon fill="#000000" stroke="#000000" points="4202.6603,-154.5001 4192.6603,-158 4202.6602,-161.5001 4202.6603,-154.5001"/>
</g>
<!-- MappingFieldDetailComponent -->
<g id="node19" class="node">
<title>MappingFieldDetailComponent</title>
<polygon fill="#ffffb3" stroke="#000000" points="4417.3682,-122 4222.6318,-122 4222.6318,-86 4417.3682,-86 4417.3682,-122"/>
<text text-anchor="middle" x="4320" y="-99.8" font-family="Times,serif" font-size="14.00" fill="#000000">MappingFieldDetailComponent</text>
</g>
<!-- MappingFieldDetailComponent&#45;&gt;DataMapperModule -->
<g id="edge19" class="edge">
<title>MappingFieldDetailComponent&#45;&gt;DataMapperModule</title>
<path fill="none" stroke="#000000" d="M4239.0591,-122.1871C4239.0591,-137.1824 4239.0591,-156 4239.0591,-156 4239.0591,-156 4202.6035,-156 4202.6035,-156"/>
<polygon fill="#000000" stroke="#000000" points="4202.6036,-152.5001 4192.6035,-156 4202.6035,-159.5001 4202.6036,-152.5001"/>
</g>
<!-- MappingListComponent -->
<g id="node20" class="node">
<title>MappingListComponent</title>
<polygon fill="#ffffb3" stroke="#000000" points="4204.661,-122 4051.339,-122 4051.339,-86 4204.661,-86 4204.661,-122"/>
<text text-anchor="middle" x="4128" y="-99.8" font-family="Times,serif" font-size="14.00" fill="#000000">MappingListComponent</text>
</g>
<!-- MappingListComponent&#45;&gt;DataMapperModule -->
<g id="edge20" class="edge">
<title>MappingListComponent&#45;&gt;DataMapperModule</title>
<path fill="none" stroke="#000000" d="M4128,-122.2228C4128,-122.2228 4128,-143.7269 4128,-143.7269"/>
<polygon fill="#000000" stroke="#000000" points="4124.5001,-143.7269 4128,-153.7269 4131.5001,-143.727 4124.5001,-143.7269"/>
</g>
<!-- MappingListFieldComponent -->
<g id="node21" class="node">
<title>MappingListFieldComponent</title>
<polygon fill="#ffffb3" stroke="#000000" points="4033.4395,-122 3850.5605,-122 3850.5605,-86 4033.4395,-86 4033.4395,-122"/>
<text text-anchor="middle" x="3942" y="-99.8" font-family="Times,serif" font-size="14.00" fill="#000000">MappingListFieldComponent</text>
</g>
<!-- MappingListFieldComponent&#45;&gt;DataMapperModule -->
<g id="edge21" class="edge">
<title>MappingListFieldComponent&#45;&gt;DataMapperModule</title>
<path fill="none" stroke="#000000" d="M4016.8336,-122.1871C4016.8336,-137.1824 4016.8336,-156 4016.8336,-156 4016.8336,-156 4053.334,-156 4053.334,-156"/>
<polygon fill="#000000" stroke="#000000" points="4053.3341,-159.5001 4063.334,-156 4053.334,-152.5001 4053.3341,-159.5001"/>
</g>
<!-- MappingSelectionComponent -->
<g id="node22" class="node">
<title>MappingSelectionComponent</title>
<polygon fill="#ffffb3" stroke="#000000" points="3832.9804,-122 3649.0196,-122 3649.0196,-86 3832.9804,-86 3832.9804,-122"/>
<text text-anchor="middle" x="3741" y="-99.8" font-family="Times,serif" font-size="14.00" fill="#000000">MappingSelectionComponent</text>
</g>
<!-- MappingSelectionComponent&#45;&gt;DataMapperModule -->
<g id="edge22" class="edge">
<title>MappingSelectionComponent&#45;&gt;DataMapperModule</title>
<path fill="none" stroke="#000000" d="M3808.213,-122.2819C3808.213,-137.9478 3808.213,-158 3808.213,-158 3808.213,-158 4053.2863,-158 4053.2863,-158"/>
<polygon fill="#000000" stroke="#000000" points="4053.2864,-161.5001 4063.2863,-158 4053.2863,-154.5001 4053.2864,-161.5001"/>
</g>
<!-- MappingSelectionSectionComponent -->
<g id="node23" class="node">
<title>MappingSelectionSectionComponent</title>
<polygon fill="#ffffb3" stroke="#000000" points="3630.9734,-122 3405.0266,-122 3405.0266,-86 3630.9734,-86 3630.9734,-122"/>
<text text-anchor="middle" x="3518" y="-99.8" font-family="Times,serif" font-size="14.00" fill="#000000">MappingSelectionSectionComponent</text>
</g>
<!-- MappingSelectionSectionComponent&#45;&gt;DataMapperModule -->
<g id="edge23" class="edge">
<title>MappingSelectionSectionComponent&#45;&gt;DataMapperModule</title>
<path fill="none" stroke="#000000" d="M3613.5949,-122.0091C3613.5949,-138.0494 3613.5949,-159 3613.5949,-159 3613.5949,-159 4053.3711,-159 4053.3711,-159"/>
<polygon fill="#000000" stroke="#000000" points="4053.3711,-162.5001 4063.3711,-159 4053.3711,-155.5001 4053.3711,-162.5001"/>
</g>
<!-- ModalErrorDetailComponent -->
<g id="node24" class="node">
<title>ModalErrorDetailComponent</title>
<polygon fill="#ffffb3" stroke="#000000" points="3386.6246,-122 3205.3754,-122 3205.3754,-86 3386.6246,-86 3386.6246,-122"/>
<text text-anchor="middle" x="3296" y="-99.8" font-family="Times,serif" font-size="14.00" fill="#000000">ModalErrorDetailComponent</text>
</g>
<!-- ModalErrorDetailComponent&#45;&gt;DataMapperModule -->
<g id="edge24" class="edge">
<title>ModalErrorDetailComponent&#45;&gt;DataMapperModule</title>
<path fill="none" stroke="#000000" d="M3296,-122.0352C3296,-138.7344 3296,-161 3296,-161 3296,-161 4053.4067,-161 4053.4067,-161"/>
<polygon fill="#000000" stroke="#000000" points="4053.4067,-164.5001 4063.4067,-161 4053.4066,-157.5001 4053.4067,-164.5001"/>
</g>
<!-- ModalErrorWindowComponent -->
<g id="node25" class="node">
<title>ModalErrorWindowComponent</title>
<polygon fill="#ffffb3" stroke="#000000" points="3186.6288,-122 2991.3712,-122 2991.3712,-86 3186.6288,-86 3186.6288,-122"/>
<text text-anchor="middle" x="3089" y="-99.8" font-family="Times,serif" font-size="14.00" fill="#000000">ModalErrorWindowComponent</text>
</g>
<!-- ModalErrorWindowComponent&#45;&gt;DataMapperModule -->
<g id="edge25" class="edge">
<title>ModalErrorWindowComponent&#45;&gt;DataMapperModule</title>
<path fill="none" stroke="#000000" d="M3089,-122.0336C3089,-139.0597 3089,-162 3089,-162 3089,-162 4053.3985,-162 4053.3985,-162"/>
<polygon fill="#000000" stroke="#000000" points="4053.3985,-165.5001 4063.3985,-162 4053.3984,-158.5001 4053.3985,-165.5001"/>
</g>
<!-- ModalWindowComponent -->
<g id="node26" class="node">
<title>ModalWindowComponent</title>
<polygon fill="#ffffb3" stroke="#000000" points="2973.094,-122 2806.906,-122 2806.906,-86 2973.094,-86 2973.094,-122"/>
<text text-anchor="middle" x="2890" y="-99.8" font-family="Times,serif" font-size="14.00" fill="#000000">ModalWindowComponent</text>
</g>
<!-- ModalWindowComponent&#45;&gt;DataMapperModule -->
<g id="edge26" class="edge">
<title>ModalWindowComponent&#45;&gt;DataMapperModule</title>
<path fill="none" stroke="#000000" d="M2890,-122.002C2890,-139.6754 2890,-164 2890,-164 2890,-164 4053.1828,-164 4053.1828,-164"/>
<polygon fill="#000000" stroke="#000000" points="4053.1828,-167.5001 4063.1828,-164 4053.1828,-160.5001 4053.1828,-167.5001"/>
</g>
<!-- NamespaceEditComponent -->
<g id="node27" class="node">
<title>NamespaceEditComponent</title>
<polygon fill="#ffffb3" stroke="#000000" points="2788.6811,-122 2619.3189,-122 2619.3189,-86 2788.6811,-86 2788.6811,-122"/>
<text text-anchor="middle" x="2704" y="-99.8" font-family="Times,serif" font-size="14.00" fill="#000000">NamespaceEditComponent</text>
</g>
<!-- NamespaceEditComponent&#45;&gt;DataMapperModule -->
<g id="edge27" class="edge">
<title>NamespaceEditComponent&#45;&gt;DataMapperModule</title>
<path fill="none" stroke="#000000" d="M2704,-122.302C2704,-140.2699 2704,-165 2704,-165 2704,-165 4053.1134,-165 4053.1134,-165"/>
<polygon fill="#000000" stroke="#000000" points="4053.1134,-168.5001 4063.1134,-165 4053.1134,-161.5001 4053.1134,-168.5001"/>
</g>
<!-- NamespaceListComponent -->
<g id="node28" class="node">
<title>NamespaceListComponent</title>
<polygon fill="#ffffb3" stroke="#000000" points="2601.626,-122 2434.374,-122 2434.374,-86 2601.626,-86 2601.626,-122"/>
<text text-anchor="middle" x="2518" y="-99.8" font-family="Times,serif" font-size="14.00" fill="#000000">NamespaceListComponent</text>
</g>
<!-- NamespaceListComponent&#45;&gt;DataMapperModule -->
<g id="edge28" class="edge">
<title>NamespaceListComponent&#45;&gt;DataMapperModule</title>
<path fill="none" stroke="#000000" d="M2518,-122.2222C2518,-140.8285 2518,-167 2518,-167 2518,-167 4053.3932,-167 4053.3932,-167"/>
<polygon fill="#000000" stroke="#000000" points="4053.3932,-170.5001 4063.3932,-167 4053.3931,-163.5001 4053.3932,-170.5001"/>
</g>
<!-- PropertyFieldEditComponent -->
<g id="node29" class="node">
<title>PropertyFieldEditComponent</title>
<polygon fill="#ffffb3" stroke="#000000" points="2415.6539,-122 2234.3461,-122 2234.3461,-86 2415.6539,-86 2415.6539,-122"/>
<text text-anchor="middle" x="2325" y="-99.8" font-family="Times,serif" font-size="14.00" fill="#000000">PropertyFieldEditComponent</text>
</g>
<!-- PropertyFieldEditComponent&#45;&gt;DataMapperModule -->
<g id="edge29" class="edge">
<title>PropertyFieldEditComponent&#45;&gt;DataMapperModule</title>
<path fill="none" stroke="#000000" d="M2325,-122.1061C2325,-141.3391 2325,-169 2325,-169 2325,-169 4053.2987,-169 4053.2987,-169"/>
<polygon fill="#000000" stroke="#000000" points="4053.2987,-172.5001 4063.2987,-169 4053.2987,-165.5001 4053.2987,-172.5001"/>
</g>
<!-- TemplateEditComponent -->
<g id="node30" class="node">
<title>TemplateEditComponent</title>
<polygon fill="#ffffb3" stroke="#000000" points="2215.5351,-122 2058.4649,-122 2058.4649,-86 2215.5351,-86 2215.5351,-122"/>
<text text-anchor="middle" x="2137" y="-99.8" font-family="Times,serif" font-size="14.00" fill="#000000">TemplateEditComponent</text>
</g>
<!-- TemplateEditComponent&#45;&gt;DataMapperModule -->
<g id="edge30" class="edge">
<title>TemplateEditComponent&#45;&gt;DataMapperModule</title>
<path fill="none" stroke="#000000" d="M2137,-122.0348C2137,-141.5762 2137,-170 2137,-170 2137,-170 4053.4505,-170 4053.4505,-170"/>
<polygon fill="#000000" stroke="#000000" points="4053.4505,-173.5001 4063.4505,-170 4053.4504,-166.5001 4053.4505,-173.5001"/>
</g>
<!-- ToErrorIconClassPipe -->
<g id="node31" class="node">
<title>ToErrorIconClassPipe</title>
<polygon fill="#ffffb3" stroke="#000000" points="2040.6811,-122 1899.3189,-122 1899.3189,-86 2040.6811,-86 2040.6811,-122"/>
<text text-anchor="middle" x="1970" y="-99.8" font-family="Times,serif" font-size="14.00" fill="#000000">ToErrorIconClassPipe</text>
</g>
<!-- ToErrorIconClassPipe&#45;&gt;DataMapperModule -->
<g id="edge31" class="edge">
<title>ToErrorIconClassPipe&#45;&gt;DataMapperModule</title>
<path fill="none" stroke="#000000" d="M1970,-122.2228C1970,-142.3652 1970,-172 1970,-172 1970,-172 4053.4153,-172 4053.4153,-172"/>
<polygon fill="#000000" stroke="#000000" points="4053.4154,-175.5001 4063.4153,-172 4053.4153,-168.5001 4053.4154,-175.5001"/>
</g>
<!-- ToolbarComponent -->
<g id="node32" class="node">
<title>ToolbarComponent</title>
<polygon fill="#ffffb3" stroke="#000000" points="1881.6513,-122 1756.3487,-122 1756.3487,-86 1881.6513,-86 1881.6513,-122"/>
<text text-anchor="middle" x="1819" y="-99.8" font-family="Times,serif" font-size="14.00" fill="#000000">ToolbarComponent</text>
</g>
<!-- ToolbarComponent&#45;&gt;DataMapperModule -->
<g id="edge32" class="edge">
<title>ToolbarComponent&#45;&gt;DataMapperModule</title>
<path fill="none" stroke="#000000" d="M1819,-122.1289C1819,-142.5724 1819,-173 1819,-173 1819,-173 4053.2262,-173 4053.2262,-173"/>
<polygon fill="#000000" stroke="#000000" points="4053.2262,-176.5001 4063.2262,-173 4053.2261,-169.5001 4053.2262,-176.5001"/>
</g>
<!-- TransitionSelectionComponent -->
<g id="node33" class="node">
<title>TransitionSelectionComponent</title>
<polygon fill="#ffffb3" stroke="#000000" points="1738.4748,-122 1547.5252,-122 1547.5252,-86 1738.4748,-86 1738.4748,-122"/>
<text text-anchor="middle" x="1643" y="-99.8" font-family="Times,serif" font-size="14.00" fill="#000000">TransitionSelectionComponent</text>
</g>
<!-- TransitionSelectionComponent&#45;&gt;DataMapperModule -->
<g id="edge33" class="edge">
<title>TransitionSelectionComponent&#45;&gt;DataMapperModule</title>
<path fill="none" stroke="#000000" d="M1643,-122.2843C1643,-143.3211 1643,-175 1643,-175 1643,-175 4053.444,-175 4053.444,-175"/>
<polygon fill="#000000" stroke="#000000" points="4053.444,-178.5001 4063.444,-175 4053.4439,-171.5001 4053.444,-178.5001"/>
</g>
<!-- DataMapperAppComponent  -->
<g id="node36" class="node">
<title>DataMapperAppComponent </title>
<polygon fill="#fb8072" stroke="#000000" points="4452.3998,-255 4273.6002,-255 4273.6002,-219 4452.3998,-219 4452.3998,-255"/>
<text text-anchor="middle" x="4363" y="-232.8" font-family="Times,serif" font-size="14.00" fill="#000000">DataMapperAppComponent </text>
</g>
<!-- DataMapperModule&#45;&gt;DataMapperAppComponent  -->
<g id="edge35" class="edge">
<title>DataMapperModule&#45;&gt;DataMapperAppComponent </title>
<path fill="none" stroke="#000000" stroke-dasharray="5,2" d="M4192.6659,-189C4256.7767,-189 4345.4921,-189 4345.4921,-189 4345.4921,-189 4345.4921,-208.8533 4345.4921,-208.8533"/>
<polygon fill="#000000" stroke="#000000" points="4341.9922,-208.8532 4345.4921,-218.8533 4348.9922,-208.8533 4341.9922,-208.8532"/>
</g>
<!-- DataMapperAppExampleHostComponent  -->
<g id="node37" class="node">
<title>DataMapperAppExampleHostComponent </title>
<polygon fill="#fb8072" stroke="#000000" points="4255.6046,-255 4000.3954,-255 4000.3954,-219 4255.6046,-219 4255.6046,-255"/>
<text text-anchor="middle" x="4128" y="-232.8" font-family="Times,serif" font-size="14.00" fill="#000000">DataMapperAppExampleHostComponent </text>
</g>
<!-- DataMapperModule&#45;&gt;DataMapperAppExampleHostComponent  -->
<g id="edge36" class="edge">
<title>DataMapperModule&#45;&gt;DataMapperAppExampleHostComponent </title>
<path fill="none" stroke="#000000" stroke-dasharray="5,2" d="M4149.5851,-190.1061C4149.5851,-190.1061 4149.5851,-208.991 4149.5851,-208.991"/>
<polygon fill="#000000" stroke="#000000" points="4146.0852,-208.9909 4149.5851,-218.991 4153.0852,-208.991 4146.0852,-208.9909"/>
</g>
<!-- DataMapperModule&#45;&gt;DataMapperAppExampleHostComponent  -->
<g id="edge39" class="edge">
<title>DataMapperModule&#45;&gt;DataMapperAppExampleHostComponent </title>
<path fill="none" stroke="#000000" stroke-dasharray="1,5" d="M4106.4149,-190.1061C4106.4149,-190.1061 4106.4149,-208.991 4106.4149,-208.991"/>
<polygon fill="#000000" stroke="#000000" points="4102.915,-208.9909 4106.4149,-218.991 4109.915,-208.991 4102.915,-208.9909"/>
</g>
<!-- ModalErrorWindowComponent  -->
<g id="node38" class="node">
<title>ModalErrorWindowComponent </title>
<polygon fill="#fb8072" stroke="#000000" points="3982.6284,-255 3783.3716,-255 3783.3716,-219 3982.6284,-219 3982.6284,-255"/>
<text text-anchor="middle" x="3883" y="-232.8" font-family="Times,serif" font-size="14.00" fill="#000000">ModalErrorWindowComponent </text>
</g>
<!-- DataMapperModule&#45;&gt;ModalErrorWindowComponent  -->
<g id="edge37" class="edge">
<title>DataMapperModule&#45;&gt;ModalErrorWindowComponent </title>
<path fill="none" stroke="#000000" stroke-dasharray="5,2" d="M4063.4465,-189C4001.2989,-189 3916.6724,-189 3916.6724,-189 3916.6724,-189 3916.6724,-208.8533 3916.6724,-208.8533"/>
<polygon fill="#000000" stroke="#000000" points="3913.1724,-208.8532 3916.6724,-218.8533 3920.1724,-208.8533 3913.1724,-208.8532"/>
</g>
<!-- ModalWindowComponent  -->
<g id="node39" class="node">
<title>ModalWindowComponent </title>
<polygon fill="#fb8072" stroke="#000000" points="3765.5945,-255 3596.4055,-255 3596.4055,-219 3765.5945,-219 3765.5945,-255"/>
<text text-anchor="middle" x="3681" y="-232.8" font-family="Times,serif" font-size="14.00" fill="#000000">ModalWindowComponent </text>
</g>
<!-- DataMapperModule&#45;&gt;ModalWindowComponent  -->
<g id="edge38" class="edge">
<title>DataMapperModule&#45;&gt;ModalWindowComponent </title>
<path fill="none" stroke="#000000" stroke-dasharray="5,2" d="M4063.2035,-187C3945.2228,-187 3707.4034,-187 3707.4034,-187 3707.4034,-187 3707.4034,-208.9489 3707.4034,-208.9489"/>
<polygon fill="#000000" stroke="#000000" points="3703.9035,-208.9488 3707.4034,-218.9489 3710.9035,-208.9489 3703.9035,-208.9488"/>
</g>
<!-- ExampleAppModule -->
<g id="node48" class="node">
<title>ExampleAppModule</title>
<polygon fill="#8dd3c7" stroke="#000000" points="8173.9201,-255 8170.9201,-259 8149.9201,-259 8146.9201,-255 8040.0799,-255 8040.0799,-219 8173.9201,-219 8173.9201,-255"/>
<text text-anchor="middle" x="8107" y="-232.8" font-family="Times,serif" font-size="14.00" fill="#000000">ExampleAppModule</text>
</g>
<!-- DataMapperModule&#45;&gt;ExampleAppModule -->
<g id="edge48" class="edge">
<title>DataMapperModule&#45;&gt;ExampleAppModule</title>
<path fill="none" stroke="#000000" d="M4192.7039,-187C4389.9652,-187 4970.4123,-187 4970.4123,-187 4970.4123,-187 4970.4123,-237 4970.4123,-237 4970.4123,-237 8030.0368,-237 8030.0368,-237"/>
<polygon fill="#000000" stroke="#000000" points="8030.0369,-240.5001 8040.0368,-237 8030.0368,-233.5001 8030.0369,-240.5001"/>
</g>
<!-- AppRoutingModule -->
<g id="node35" class="node">
<title>AppRoutingModule</title>
<polygon fill="#8dd3c7" stroke="#000000" points="1524.2744,-122 1521.2744,-126 1500.2744,-126 1497.2744,-122 1395.7256,-122 1395.7256,-86 1524.2744,-86 1524.2744,-122"/>
<text text-anchor="middle" x="1460" y="-99.8" font-family="Times,serif" font-size="14.00" fill="#000000">AppRoutingModule</text>
</g>
<!-- AppRoutingModule&#45;&gt;DataMapperModule -->
<g id="edge34" class="edge">
<title>AppRoutingModule&#45;&gt;DataMapperModule</title>
<path fill="none" stroke="#000000" d="M1460,-122.1686C1460,-143.498 1460,-176 1460,-176 1460,-176 4053.371,-176 4053.371,-176"/>
<polygon fill="#000000" stroke="#000000" points="4053.3711,-179.5001 4063.371,-176 4053.371,-172.5001 4053.3711,-179.5001"/>
</g>
<!-- DocumentManagementService -->
<g id="node40" class="node">
<title>DocumentManagementService</title>
<ellipse fill="#fdb462" stroke="#000000" cx="1241" cy="-104" rx="130.7602" ry="18"/>
<text text-anchor="middle" x="1241" y="-99.8" font-family="Times,serif" font-size="14.00" fill="#000000">DocumentManagementService</text>
</g>
<!-- DocumentManagementService&#45;&gt;DataMapperModule -->
<g id="edge40" class="edge">
<title>DocumentManagementService&#45;&gt;DataMapperModule</title>
<path fill="none" stroke="#000000" d="M1241,-122.2921C1241,-144.2057 1241,-178 1241,-178 1241,-178 4053.3103,-178 4053.3103,-178"/>
<polygon fill="#000000" stroke="#000000" points="4053.3103,-181.5001 4063.3103,-178 4053.3102,-174.5001 4053.3103,-181.5001"/>
</g>
<!-- ErrorHandlerService -->
<g id="node41" class="node">
<title>ErrorHandlerService</title>
<ellipse fill="#fdb462" stroke="#000000" cx="1001" cy="-104" rx="91.4288" ry="18"/>
<text text-anchor="middle" x="1001" y="-99.8" font-family="Times,serif" font-size="14.00" fill="#000000">ErrorHandlerService</text>
</g>
<!-- ErrorHandlerService&#45;&gt;DataMapperModule -->
<g id="edge41" class="edge">
<title>ErrorHandlerService&#45;&gt;DataMapperModule</title>
<path fill="none" stroke="#000000" d="M1001,-122.0109C1001,-144.4852 1001,-180 1001,-180 1001,-180 4053.4059,-180 4053.4059,-180"/>
<polygon fill="#000000" stroke="#000000" points="4053.406,-183.5001 4063.4059,-180 4053.4059,-176.5001 4053.406,-183.5001"/>
</g>
<!-- FieldActionService -->
<g id="node42" class="node">
<title>FieldActionService</title>
<ellipse fill="#fdb462" stroke="#000000" cx="805" cy="-104" rx="86.2503" ry="18"/>
<text text-anchor="middle" x="805" y="-99.8" font-family="Times,serif" font-size="14.00" fill="#000000">FieldActionService</text>
</g>
<!-- FieldActionService&#45;&gt;DataMapperModule -->
<g id="edge42" class="edge">
<title>FieldActionService&#45;&gt;DataMapperModule</title>
<path fill="none" stroke="#000000" d="M805,-122.2479C805,-145.0179 805,-181 805,-181 805,-181 4053.4818,-181 4053.4818,-181"/>
<polygon fill="#000000" stroke="#000000" points="4053.4819,-184.5001 4063.4818,-181 4053.4818,-177.5001 4053.4819,-184.5001"/>
</g>
<!-- FileManagementService -->
<g id="node43" class="node">
<title>FileManagementService</title>
<ellipse fill="#fdb462" stroke="#000000" cx="595" cy="-104" rx="105.3528" ry="18"/>
<text text-anchor="middle" x="595" y="-99.8" font-family="Times,serif" font-size="14.00" fill="#000000">FileManagementService</text>
</g>
<!-- FileManagementService&#45;&gt;DataMapperModule -->
<g id="edge43" class="edge">
<title>FileManagementService&#45;&gt;DataMapperModule</title>
<path fill="none" stroke="#000000" d="M595,-122.3228C595,-145.6602 595,-183 595,-183 595,-183 4053.2805,-183 4053.2805,-183"/>
<polygon fill="#000000" stroke="#000000" points="4053.2805,-186.5001 4063.2805,-183 4053.2804,-179.5001 4053.2805,-186.5001"/>
</g>
<!-- InitializationService -->
<g id="node44" class="node">
<title>InitializationService</title>
<ellipse fill="#fdb462" stroke="#000000" cx="382" cy="-104" rx="89.1761" ry="18"/>
<text text-anchor="middle" x="382" y="-99.8" font-family="Times,serif" font-size="14.00" fill="#000000">InitializationService</text>
</g>
<!-- InitializationService&#45;&gt;DataMapperModule -->
<g id="edge44" class="edge">
<title>InitializationService&#45;&gt;DataMapperModule</title>
<path fill="none" stroke="#000000" d="M382,-122.1532C382,-145.7566 382,-184 382,-184 382,-184 4053.3758,-184 4053.3758,-184"/>
<polygon fill="#000000" stroke="#000000" points="4053.3758,-187.5001 4063.3758,-184 4053.3758,-180.5001 4053.3758,-187.5001"/>
</g>
<!-- MappingManagementService -->
<g id="node45" class="node">
<title>MappingManagementService</title>
<ellipse fill="#fdb462" stroke="#000000" cx="149" cy="-104" rx="125.0451" ry="18"/>
<text text-anchor="middle" x="149" y="-99.8" font-family="Times,serif" font-size="14.00" fill="#000000">MappingManagementService</text>
</g>
<!-- MappingManagementService&#45;&gt;DataMapperModule -->
<g id="edge45" class="edge">
<title>MappingManagementService&#45;&gt;DataMapperModule</title>
<path fill="none" stroke="#000000" d="M149,-122.1985C149,-146.3563 149,-186 149,-186 149,-186 4053.4818,-186 4053.4818,-186"/>
<polygon fill="#000000" stroke="#000000" points="4053.4819,-189.5001 4063.4818,-186 4053.4818,-182.5001 4053.4819,-189.5001"/>
</g>
<!-- AppComponent -->
<g id="node46" class="node">
<title>AppComponent</title>
<polygon fill="#ffffb3" stroke="#000000" points="8317.9399,-190 8212.0601,-190 8212.0601,-154 8317.9399,-154 8317.9399,-190"/>
<text text-anchor="middle" x="8265" y="-167.8" font-family="Times,serif" font-size="14.00" fill="#000000">AppComponent</text>
</g>
<!-- AppComponent&#45;&gt;ExampleAppModule -->
<g id="edge46" class="edge">
<title>AppComponent&#45;&gt;ExampleAppModule</title>
<path fill="none" stroke="#000000" d="M8283.3232,-190.0225C8283.3232,-207.3734 8283.3232,-231 8283.3232,-231 8283.3232,-231 8183.9116,-231 8183.9116,-231"/>
<polygon fill="#000000" stroke="#000000" points="8183.9117,-227.5001 8173.9116,-231 8183.9116,-234.5001 8183.9117,-227.5001"/>
</g>
<!-- AtlasmapNavbarComponent -->
<g id="node47" class="node">
<title>AtlasmapNavbarComponent</title>
<polygon fill="#ffffb3" stroke="#000000" points="8194.1811,-190 8017.8189,-190 8017.8189,-154 8194.1811,-154 8194.1811,-190"/>
<text text-anchor="middle" x="8106" y="-167.8" font-family="Times,serif" font-size="14.00" fill="#000000">AtlasmapNavbarComponent</text>
</g>
<!-- AtlasmapNavbarComponent&#45;&gt;ExampleAppModule -->
<g id="edge47" class="edge">
<title>AtlasmapNavbarComponent&#45;&gt;ExampleAppModule</title>
<path fill="none" stroke="#000000" d="M8107,-190.1061C8107,-190.1061 8107,-208.991 8107,-208.991"/>
<polygon fill="#000000" stroke="#000000" points="8103.5001,-208.9909 8107,-218.991 8110.5001,-208.991 8103.5001,-208.9909"/>
</g>
<!-- AppComponent  -->
<g id="node49" class="node">
<title>AppComponent </title>
<polygon fill="#80b1d3" stroke="#000000" points="8323.439,-323 8214.561,-323 8214.561,-287 8323.439,-287 8323.439,-323"/>
<text text-anchor="middle" x="8269" y="-300.8" font-family="Times,serif" font-size="14.00" fill="#000000">AppComponent </text>
</g>
<!-- ExampleAppModule&#45;&gt;AppComponent  -->
<g id="edge49" class="edge">
<title>ExampleAppModule&#45;&gt;AppComponent </title>
<path fill="none" stroke="#000000" stroke-dasharray="1,5" d="M8173.8075,-243C8210.619,-243 8248.9268,-243 8248.9268,-243 8248.9268,-243 8248.9268,-276.7333 8248.9268,-276.7333"/>
<polygon fill="#000000" stroke="#000000" points="8245.4269,-276.7333 8248.9268,-286.7333 8252.4269,-276.7333 8245.4269,-276.7333"/>
</g>
<!-- AtlasmapNavbarComponent  -->
<g id="node50" class="node">
<title>AtlasmapNavbarComponent </title>
<polygon fill="#80b1d3" stroke="#000000" points="8196.6813,-323 8017.3187,-323 8017.3187,-287 8196.6813,-287 8196.6813,-323"/>
<text text-anchor="middle" x="8107" y="-300.8" font-family="Times,serif" font-size="14.00" fill="#000000">AtlasmapNavbarComponent </text>
</g>
<!-- ExampleAppModule&#45;&gt;AtlasmapNavbarComponent  -->
<g id="edge50" class="edge">
<title>ExampleAppModule&#45;&gt;AtlasmapNavbarComponent </title>
<path fill="none" stroke="#000000" stroke-dasharray="1,5" d="M8107,-255.2228C8107,-255.2228 8107,-276.7269 8107,-276.7269"/>
<polygon fill="#000000" stroke="#000000" points="8103.5001,-276.7269 8107,-286.7269 8110.5001,-276.727 8103.5001,-276.7269"/>
</g>
</g>
</svg>
